<?xml version="1.0" standalone="no"?>
<!DOCTYPE svg PUBLIC "-//W3C//DTD SVG 20010904//EN"
 "http://www.w3.org/TR/2001/REC-SVG-20010904/DTD/svg10.dtd">
<svg version="1.0" xmlns="http://www.w3.org/2000/svg"
 width="3672.000000pt" height="2160.000000pt" viewBox="0 0 3672.000000 2160.000000"
 preserveAspectRatio="xMidYMid meet">

<g transform="translate(0.000000,2160.000000) scale(0.100000,-0.100000)"
fill="#000000" stroke="none">
<path d="M0 10800 l0 -10800 18360 0 18360 0 0 10800 0 10800 -10092 -4
c-5551 -2 -10109 -5 -10128 -8 -19 -2 -62 -5 -95 -6 -57 -3 -59 -3 -35 -17 14
-8 21 -14 15 -15 -5 0 4 -9 20 -20 17 -11 38 -25 48 -32 16 -11 21 -10 37 10
26 32 50 29 50 -7 0 -25 5 -30 34 -35 33 -6 66 0 66 13 0 16 42 51 60 51 17 0
20 -7 20 -45 0 -25 -4 -45 -10 -45 -5 0 -10 -9 -10 -20 0 -11 -6 -20 -13 -20
-7 0 -23 -7 -35 -16 l-23 -16 26 -19 c28 -23 42 -18 55 17 7 18 17 24 39 24
17 0 31 -6 35 -16 3 -8 10 -12 16 -9 6 3 24 -7 41 -24 17 -17 34 -31 39 -31 7
0 19 -33 20 -52 0 -4 -23 -10 -50 -14 -28 -4 -50 -10 -50 -14 0 -18 30 -28 89
-29 36 0 67 -5 70 -9 3 -5 23 -12 44 -16 45 -8 67 5 67 41 0 24 -4 27 -52 37
-34 8 -37 26 -4 26 13 0 27 6 30 13 5 10 7 10 12 0 3 -7 17 -13 31 -13 26 0
113 -76 113 -99 0 -6 -12 -16 -27 -22 -80 -31 -79 -31 -59 -38 17 -7 16 -9 -8
-24 -22 -15 -25 -21 -16 -37 9 -16 8 -20 -5 -20 -8 0 -15 -4 -15 -10 0 -16 14
-12 38 10 12 11 28 20 36 20 7 0 16 7 20 15 9 24 120 21 145 -4 22 -22 18 -59
-8 -69 -23 -8 -39 -33 -34 -52 5 -20 81 -48 91 -34 4 5 20 15 36 22 25 11 27
15 14 25 -37 29 -29 97 11 97 23 0 47 -80 32 -108 -31 -59 4 -126 62 -120 31
3 32 2 32 -37 0 -35 -3 -40 -23 -41 -29 -2 -35 -8 -36 -41 -1 -19 -8 -31 -23
-38 -28 -12 -30 -41 -4 -55 27 -14 41 -13 41 5 0 22 27 18 33 -5 4 -16 14 -20
52 -20 49 0 122 -17 140 -32 5 -5 2 -8 -9 -8 -15 0 -16 -5 -10 -32 4 -18 7
-40 7 -48 0 -8 4 -21 10 -28 7 -9 7 -16 -1 -24 -16 -16 -15 -28 1 -28 8 0 24
-11 37 -25 25 -27 40 -25 40 6 0 10 5 19 10 19 14 0 12 -104 -2 -118 -7 -7
-24 -12 -38 -12 -14 0 -41 -11 -60 -25 -34 -25 -110 -36 -110 -15 0 6 8 10 17
10 13 0 14 3 6 11 -9 9 -19 6 -41 -12 -24 -20 -30 -31 -29 -62 1 -39 -15 -60
-38 -50 -7 2 -22 -7 -33 -21 -11 -14 -25 -26 -31 -26 -6 0 -11 -6 -11 -14 0
-8 -6 -17 -13 -20 -9 -5 -9 -7 0 -12 28 -13 13 -34 -24 -34 -36 0 -36 0 -18
20 17 19 17 22 3 37 -15 14 -15 17 0 33 9 9 25 20 35 23 23 9 20 70 -4 75 -16
3 -59 -29 -59 -44 0 -17 -42 -36 -53 -25 -17 17 -27 13 -27 -12 0 -13 11 -34
25 -47 14 -13 25 -29 25 -36 0 -7 6 -19 14 -27 8 -8 14 -22 13 -33 -2 -16 7
-20 53 -26 30 -4 69 -10 87 -13 32 -7 32 -7 26 -57 -5 -43 -3 -51 16 -64 17
-13 20 -19 10 -30 -9 -12 -5 -14 29 -14 l40 0 4 -46 c2 -29 -3 -59 -14 -82
l-16 -37 35 -32 c34 -31 34 -33 16 -52 -10 -11 -30 -23 -46 -26 l-27 -7 36
-34 c39 -37 58 -42 72 -19 7 13 10 12 20 -10 6 -14 17 -25 23 -25 16 0 1 -62
-19 -77 -12 -10 -18 -10 -23 -2 -4 8 -11 4 -19 -11 -10 -18 -9 -24 1 -31 8 -5
15 -4 17 1 6 17 19 11 52 -21 17 -18 29 -38 26 -46 -3 -8 -1 -11 5 -8 14 9 39
-14 39 -35 0 -10 6 -23 14 -29 8 -7 16 -29 18 -51 l3 -39 -55 -3 c-70 -4 -77
-29 -12 -40 50 -8 65 -16 57 -29 -4 -5 3 -9 15 -9 20 0 20 -1 6 -22 -9 -12
-16 -32 -16 -43 0 -14 3 -16 8 -7 6 9 13 7 30 -8 17 -16 21 -31 21 -68 -1 -26
4 -59 9 -73 6 -16 7 -30 1 -36 -5 -5 -10 -31 -11 -57 -3 -48 -2 -49 30 -58 17
-5 32 -13 32 -19 0 -6 8 -1 18 11 11 14 23 19 34 15 15 -6 15 -9 3 -21 -7 -8
-18 -14 -24 -14 -6 0 -8 -12 -5 -28 4 -19 0 -34 -10 -45 -18 -17 -7 -31 17
-21 9 3 26 -6 41 -23 24 -25 26 -33 20 -73 -14 -87 -12 -93 25 -101 43 -9 52
-23 49 -82 -2 -50 7 -67 38 -71 13 -2 19 -12 20 -30 1 -14 8 -34 18 -44 20
-23 21 -56 1 -72 -12 -10 -15 -10 -15 4 0 40 -61 74 -74 41 -3 -8 -2 -15 3
-15 4 0 7 -10 7 -22 -1 -18 4 -22 22 -20 12 2 22 -2 22 -8 0 -6 4 -9 9 -6 5 3
12 -6 15 -20 4 -14 18 -37 32 -51 15 -15 24 -33 21 -43 -3 -12 2 -20 15 -23
18 -5 19 -11 13 -66 -6 -53 -5 -61 13 -70 11 -6 22 -7 26 -3 4 3 11 0 16 -8
11 -17 3 -51 -14 -62 -8 -5 -8 -13 1 -28 7 -11 13 -27 13 -35 0 -8 8 -15 18
-15 21 0 63 -87 60 -122 -3 -21 2 -24 47 -29 28 -3 46 -7 41 -7 -5 -1 -3 -9 5
-18 7 -8 21 -13 31 -10 15 3 18 0 16 -17 -2 -12 -9 -21 -16 -20 -19 4 -14 -6
16 -32 15 -13 38 -25 50 -25 15 0 26 -7 29 -20 3 -11 9 -20 14 -20 5 0 9 -10
9 -22 0 -13 7 -32 15 -42 19 -26 19 -65 0 -72 -24 -10 -17 -38 14 -56 21 -11
33 -29 41 -57 6 -23 15 -41 19 -41 5 0 18 -20 30 -45 12 -25 26 -45 31 -45 6
0 10 -4 10 -10 0 -5 -11 -10 -25 -10 -26 0 -30 -6 -16 -29 6 -9 18 -11 40 -6
39 8 50 -12 26 -49 -16 -24 -16 -28 -1 -51 9 -14 21 -25 26 -25 6 0 10 -35 10
-80 0 -50 4 -80 11 -80 6 0 4 -9 -4 -21 -15 -21 -12 -59 4 -59 5 0 9 -8 9 -18
0 -11 12 -24 26 -31 26 -12 27 -13 21 -83 -6 -69 -5 -73 23 -105 33 -37 35
-45 19 -75 -8 -14 -8 -23 0 -31 15 -15 15 -137 0 -137 -7 0 -9 -13 -5 -37 14
-91 18 -103 42 -103 10 0 14 -13 14 -50 0 -33 4 -50 13 -50 6 0 4 -5 -5 -11
-21 -12 -24 -39 -5 -39 7 0 19 -24 27 -52 9 -33 21 -53 30 -54 36 -2 40 -5 40
-27 0 -13 6 -29 12 -35 10 -10 10 -15 -2 -22 -11 -7 -8 -11 13 -21 29 -13 34
-28 15 -47 -8 -8 -8 -12 -1 -12 5 0 8 -10 6 -22 -2 -13 4 -32 14 -43 10 -12
25 -34 33 -50 14 -26 23 -31 68 -35 53 -6 72 -19 72 -51 0 -23 -11 -31 -26
-18 -15 12 -64 -15 -64 -36 0 -31 81 -24 103 8 5 7 7 -8 5 -35 -2 -37 0 -48
14 -51 11 -3 15 -11 11 -26 -4 -16 1 -23 22 -31 14 -5 36 -10 49 -10 12 0 31
-6 41 -14 16 -12 17 -16 6 -29 -16 -20 -6 -37 20 -37 16 0 19 -7 19 -39 0 -30
6 -44 25 -59 14 -11 25 -25 25 -31 0 -6 6 -8 14 -5 8 3 19 -4 26 -16 7 -14 18
-20 29 -17 14 3 17 -1 13 -19 -4 -20 0 -24 21 -24 29 0 39 -12 43 -49 1 -14 4
-35 6 -45 2 -14 -4 -21 -22 -26 -19 -5 -24 -12 -22 -31 4 -36 20 -46 37 -23
13 17 14 17 15 2 0 -25 17 -22 23 3 3 12 10 18 16 14 14 -8 14 -35 1 -35 -14
0 -13 -43 2 -58 7 -7 23 -12 38 -12 18 0 21 -3 11 -9 -27 -17 -4 -58 45 -83
57 -28 72 -49 80 -110 4 -26 10 -48 15 -48 5 0 9 -11 9 -24 0 -13 7 -29 15
-36 8 -7 12 -16 9 -21 -3 -5 10 -16 28 -24 40 -16 59 -51 67 -120 6 -47 8 -50
33 -47 36 4 43 -12 14 -33 -20 -16 -22 -21 -13 -39 7 -11 21 -28 32 -38 13
-11 15 -17 7 -18 -8 0 -12 -9 -10 -22 2 -18 9 -23 31 -23 15 1 27 -4 27 -10 1
-5 9 0 19 13 38 44 119 11 105 -43 -3 -14 -3 -37 0 -51 6 -22 11 -25 34 -20
15 3 21 3 15 0 -18 -8 -16 -24 3 -24 13 0 15 -7 11 -29 -5 -24 -2 -30 21 -40
18 -9 28 -9 30 -2 6 18 40 12 66 -11 13 -13 31 -28 39 -35 12 -10 13 -20 6
-54 -6 -23 -6 -45 -2 -48 4 -3 13 -15 19 -26 6 -11 22 -22 35 -26 13 -3 23
-11 22 -17 -2 -7 9 -12 25 -12 16 0 37 -9 47 -20 19 -21 18 -21 -10 -46 -15
-13 -26 -25 -24 -27 2 -2 16 -8 32 -15 18 -8 27 -19 27 -35 0 -29 18 -54 50
-70 14 -7 25 -21 26 -32 3 -67 5 -74 24 -80 11 -3 20 -15 20 -26 0 -12 7 -19
20 -19 11 0 20 -6 20 -13 0 -8 9 -22 20 -32 25 -23 24 -76 -2 -83 -20 -5 -25
-31 -5 -33 6 -1 33 -1 60 1 37 1 47 -1 47 -14 0 -9 5 -16 10 -16 6 0 5 -8 -2
-20 -10 -16 -10 -24 0 -40 9 -15 9 -20 0 -20 -9 0 -9 -3 0 -12 17 -17 15 -48
-3 -48 -8 0 -15 -4 -15 -10 0 -14 53 -13 67 1 14 14 53 2 53 -16 0 -7 11 -22
25 -33 32 -26 31 -32 -11 -64 l-36 -27 35 -6 c20 -4 56 -3 81 3 42 9 48 8 61
-11 8 -12 15 -38 15 -57 0 -27 7 -42 26 -59 22 -19 25 -28 19 -60 -5 -30 -3
-40 9 -44 23 -9 20 -37 -4 -37 -11 0 -20 -4 -20 -10 0 -5 7 -10 15 -10 18 0
20 -16 3 -23 -10 -4 -9 -8 2 -16 19 -13 41 -14 60 -1 13 9 13 11 1 19 -12 8
-12 12 2 25 8 9 23 16 31 16 21 0 22 -62 1 -94 -21 -32 -11 -51 40 -75 23 -11
51 -31 61 -43 11 -13 36 -36 57 -52 20 -16 37 -34 37 -41 0 -7 6 -15 13 -18 7
-2 8 -8 3 -13 -5 -5 -11 -4 -13 4 -3 6 -16 12 -29 12 -14 0 -27 7 -30 15 -4
10 -20 15 -44 15 -22 0 -40 5 -43 13 -3 8 -10 7 -26 -7 -32 -29 -26 -36 34
-36 l55 0 0 -40 c0 -22 5 -40 10 -40 6 0 10 4 10 9 0 4 23 4 51 0 51 -8 77
-19 46 -19 -12 0 -17 -9 -17 -30 0 -20 5 -30 15 -30 19 0 19 -14 0 -34 -8 -8
-15 -24 -15 -35 0 -12 -6 -21 -15 -21 -8 0 -15 -5 -15 -11 0 -6 6 -9 14 -6 8
3 16 1 18 -5 2 -6 10 -4 20 6 22 21 25 21 42 -11 8 -16 15 -22 16 -15 0 6 5
12 10 12 7 0 7 -6 0 -19 -17 -33 -12 -51 14 -51 48 0 56 -9 57 -64 1 -45 2
-48 11 -26 11 28 60 58 66 40 2 -5 18 -10 35 -10 18 0 55 -7 82 -14 42 -12 47
-16 28 -21 -28 -9 -30 -25 -3 -25 11 0 20 -5 20 -12 0 -9 3 -9 12 0 16 16 43
15 57 -2 9 -10 8 -15 -4 -20 -8 -3 -15 -12 -15 -21 0 -8 -6 -15 -14 -15 -7 0
-23 -13 -36 -30 -13 -16 -27 -30 -31 -30 -12 0 -49 -38 -49 -49 0 -8 -33 -46
-139 -157 -21 -22 -42 -51 -46 -64 -4 -13 -20 -35 -35 -49 -37 -35 -64 -92
-84 -176 -9 -38 -21 -86 -26 -105 -5 -19 -14 -62 -20 -95 -6 -33 -15 -73 -20
-90 -5 -16 -12 -46 -15 -65 -3 -19 -12 -62 -20 -95 -8 -33 -24 -103 -36 -155
-23 -101 -54 -212 -68 -245 -5 -11 -59 -175 -121 -365 -61 -190 -115 -354
-120 -365 -4 -11 -34 -99 -66 -195 -31 -96 -74 -227 -95 -290 -21 -63 -46
-162 -57 -220 -28 -147 -69 -347 -97 -465 -23 -100 -49 -232 -45 -237 1 -2 -4
-16 -10 -33 -6 -16 -18 -61 -25 -100 -7 -38 -21 -106 -31 -150 -9 -44 -18
-100 -18 -125 -1 -39 2 -45 19 -45 17 0 27 20 61 125 23 69 51 157 62 195 11
39 34 115 51 170 36 119 80 267 126 425 18 63 41 138 50 165 10 28 28 86 40
130 12 44 29 96 38 115 8 19 54 132 101 250 182 459 191 479 239 521 44 40 57
63 147 284 59 145 75 182 93 208 9 15 17 31 17 36 0 6 11 35 25 65 14 30 25
60 25 65 0 6 3 11 8 11 8 0 37 69 48 113 3 15 10 30 15 33 5 3 7 10 4 15 -4 5
-2 9 2 9 5 0 14 15 21 34 12 33 78 101 137 141 29 20 112 101 148 144 10 12
22 19 27 16 15 -9 12 -51 -5 -65 -16 -14 -20 -57 -6 -79 10 -16 31 -6 31 15 0
18 38 93 56 112 8 7 14 24 14 38 0 13 4 32 9 42 5 9 26 51 46 92 19 41 54 95
76 120 23 25 54 60 70 77 16 18 29 40 29 48 0 25 19 55 35 55 8 0 15 4 15 9 0
13 52 20 73 10 10 -6 15 -14 12 -18 -2 -5 4 -20 15 -34 11 -14 20 -32 20 -40
0 -12 7 -11 38 4 51 26 162 28 198 4 21 -13 24 -22 19 -45 -5 -22 -1 -31 17
-44 19 -14 21 -18 8 -26 -21 -14 -36 -12 -50 5 -9 10 -9 15 -1 15 6 0 11 11
11 25 0 19 -6 25 -22 26 -13 1 -37 3 -55 5 -26 2 -32 -2 -38 -24 -5 -19 0 -31
19 -49 14 -12 32 -23 41 -23 8 0 15 -9 15 -19 0 -20 25 -35 41 -25 21 12 78
-20 101 -58 43 -72 66 -99 73 -89 7 13 25 15 25 4 0 -10 -49 -33 -71 -33 -9 0
-24 -12 -34 -26 -21 -32 -12 -40 55 -50 58 -9 106 -29 113 -48 4 -10 1 -13 -9
-9 -25 9 -15 -17 17 -44 17 -15 28 -32 25 -40 -4 -8 4 -17 19 -23 28 -11 31
-20 13 -38 -16 -16 -11 -19 52 -35 30 -8 56 -19 58 -26 2 -7 15 -16 28 -21 19
-8 22 -14 16 -32 -17 -47 12 -78 58 -63 11 3 20 2 20 -3 0 -5 8 -9 17 -8 12 0
19 -7 21 -21 2 -13 12 -29 21 -36 10 -6 20 -21 22 -32 3 -11 16 -25 30 -32 14
-7 31 -28 38 -47 l14 -34 39 14 40 14 -3 -35 c-2 -18 0 -37 4 -41 15 -15 7
-59 -13 -72 -20 -12 -28 -42 -11 -42 35 0 53 -66 26 -93 -10 -11 -15 -42 -16
-113 -1 -55 -7 -133 -15 -174 -7 -41 -14 -104 -16 -140 -1 -36 -5 -75 -9 -87
-4 -12 -13 -70 -19 -130 -6 -59 -15 -124 -20 -143 -5 -19 -14 -69 -20 -110 -7
-41 -18 -100 -26 -130 -7 -30 -22 -91 -33 -135 -10 -44 -38 -152 -61 -240 -24
-88 -46 -176 -50 -195 -4 -19 -26 -105 -49 -190 -22 -85 -57 -216 -77 -290
-36 -136 -88 -334 -124 -467 -10 -40 -33 -104 -50 -142 -16 -38 -30 -72 -30
-76 0 -3 -11 -30 -24 -58 -121 -262 -217 -499 -251 -622 -9 -33 -23 -74 -31
-92 -8 -17 -17 -46 -20 -65 -3 -18 -15 -58 -26 -88 -29 -79 -28 -81 86 -490
13 -47 31 -119 41 -160 16 -74 19 -86 50 -185 8 -27 22 -90 30 -140 26 -149
53 -306 64 -380 6 -38 13 -81 16 -95 3 -14 9 -61 15 -105 6 -44 15 -105 20
-135 6 -30 17 -102 26 -160 8 -58 24 -148 34 -200 11 -52 22 -122 26 -155 3
-33 10 -73 16 -90 5 -16 13 -50 18 -75 20 -106 66 -266 128 -445 35 -103 44
-146 38 -186 -4 -26 -1 -43 12 -60 31 -43 43 -70 47 -104 4 -29 -1 -40 -32
-70 -39 -38 -79 -46 -90 -18 -4 10 2 23 16 34 12 10 17 20 11 24 -5 3 -10 1
-10 -6 0 -10 -3 -10 -11 -2 -9 9 -23 6 -58 -12 -45 -24 -103 -35 -211 -39 -30
-1 -68 -7 -83 -14 -38 -16 -82 -15 -100 3 -8 8 -17 12 -20 9 -3 -3 -10 3 -16
14 -6 12 -38 30 -76 43 -36 13 -65 29 -65 35 0 6 -9 19 -20 29 -18 16 -25 17
-76 6 -30 -7 -58 -10 -61 -7 -4 3 -1 6 6 6 9 0 9 5 1 20 -6 11 -8 30 -5 42 13
52 -78 90 -100 41 -6 -14 -20 -23 -42 -25 -18 -2 -34 -1 -35 3 -6 15 -74 13
-98 -4 -25 -18 -50 -22 -50 -9 0 4 -14 16 -30 27 -40 27 -40 59 0 77 17 7 30
16 30 20 0 12 -28 10 -35 -2 -8 -13 -45 -13 -45 0 0 6 5 10 10 10 6 0 10 5 10
10 0 18 -18 11 -25 -10 -9 -27 -49 -26 -75 2 -23 25 -25 35 -8 40 10 4 8 14
-7 41 -11 20 -22 37 -25 37 -3 0 -14 -17 -25 -37 -11 -21 -24 -42 -28 -48 -4
-5 -14 -19 -21 -29 -13 -19 -13 -19 -39 0 -15 10 -29 27 -33 37 -3 10 -17 22
-30 27 -13 5 -24 14 -24 20 0 13 -37 13 -42 0 -2 -6 -21 -12 -43 -14 -22 -1
-58 -9 -79 -16 -29 -9 -41 -9 -49 0 -9 9 -8 14 3 23 20 16 23 57 4 57 -8 0
-14 -4 -14 -10 0 -5 -4 -10 -10 -10 -5 0 -10 9 -10 20 0 22 -10 26 -28 8 -8
-8 -15 -8 -26 2 -13 10 -23 8 -58 -9 -25 -12 -44 -17 -46 -11 -2 6 -19 10 -39
10 -41 0 -61 17 -58 50 1 19 7 24 22 22 28 -4 66 44 57 72 -9 30 -8 30 -58 11
-34 -13 -46 -23 -46 -39 l0 -20 -21 20 c-20 21 -20 21 -1 55 12 22 25 33 36
31 16 -3 66 43 66 60 0 23 -132 19 -158 -5 -10 -9 -33 -17 -51 -17 -18 0 -41
-5 -52 -10 -14 -8 -19 -7 -19 3 0 8 10 19 23 25 l22 11 -22 7 c-13 3 -23 10
-23 15 0 5 -6 9 -14 9 -8 0 -16 15 -19 37 -7 42 13 82 44 90 11 3 18 11 16 17
-6 19 -38 19 -52 0 -11 -16 -16 -17 -41 -6 -22 11 -30 11 -41 -1 -12 -11 -10
-17 7 -40 18 -22 19 -27 6 -27 -9 0 -16 -8 -16 -20 0 -11 -7 -20 -15 -20 -8 0
-15 5 -15 10 0 6 -11 15 -26 20 -25 10 -25 10 -7 35 10 13 24 25 32 25 8 0 11
6 7 16 -3 9 -6 18 -6 20 0 2 -12 2 -27 -1 -16 -3 -22 -2 -13 2 55 28 71 47 68
77 -2 23 -9 32 -25 34 -13 2 -24 13 -27 28 -5 17 -13 24 -31 24 -14 0 -25 -4
-25 -9 0 -5 -3 -16 -6 -24 -3 -10 5 -18 25 -25 l31 -11 -24 -26 c-13 -14 -40
-31 -60 -36 -20 -5 -36 -14 -36 -19 0 -6 -7 -10 -15 -10 -10 0 -15 10 -15 28
0 15 -6 34 -12 40 -10 10 -10 17 0 32 6 11 12 28 12 39 0 15 7 19 34 19 42 0
73 27 82 71 6 27 4 33 -15 38 -22 6 -30 43 -8 43 8 0 7 4 -3 10 -8 5 -30 10
-48 10 -50 0 -75 17 -68 46 4 16 2 24 -6 24 -7 0 -34 20 -60 44 -53 49 -73 47
-66 -8 l4 -36 -43 0 c-24 0 -43 5 -43 10 0 6 -7 10 -15 10 -8 0 -15 7 -15 15
0 15 -59 45 -90 45 -11 0 -20 10 -23 28 -5 26 -9 28 -48 26 -23 -1 -45 -7 -49
-14 -6 -9 -13 -9 -28 -1 -26 14 -69 14 -77 1 -7 -12 -65 -13 -80 -2 -12 8 -12
62 -1 80 8 13 1 18 -45 26 -45 8 -69 -1 -69 -25 0 -12 11 -22 33 -28 17 -5 26
-10 20 -10 -7 -1 -13 -8 -13 -16 0 -19 -53 -42 -58 -26 -2 6 -10 11 -18 11 -7
0 -16 11 -19 25 -3 14 -7 37 -10 51 -4 19 0 30 20 45 14 11 25 25 25 30 0 14
-26 11 -40 -6 -7 -8 -23 -15 -37 -15 -31 0 -83 27 -83 43 0 6 -17 23 -37 37
-30 21 -47 24 -101 23 -63 -2 -64 -1 -58 22 3 13 2 27 -4 30 -16 10 -12 33 11
65 15 20 20 36 15 54 -6 25 -5 26 44 26 27 0 50 5 50 10 0 6 -18 10 -40 10
-30 0 -40 4 -40 16 0 11 -5 14 -16 10 -9 -3 -27 -9 -40 -12 -13 -3 -24 -12
-24 -19 0 -14 -59 -38 -81 -33 -7 2 -22 -11 -33 -29 -12 -17 -29 -34 -39 -36
-9 -3 -15 -1 -12 3 3 5 1 12 -5 15 -6 4 -8 16 -5 27 5 14 1 21 -14 25 -48 12
-6 64 45 56 41 -7 44 1 8 20 l-27 14 23 23 c20 20 20 21 2 16 -15 -5 -21 -1
-24 19 -4 17 -1 25 8 25 8 0 13 3 12 8 -4 10 35 72 45 72 4 0 5 4 2 10 -3 5 1
24 9 42 22 50 25 107 9 178 -25 108 -48 148 -55 98 -2 -12 -14 -28 -28 -35
-46 -23 -86 28 -60 76 13 25 47 27 77 6 22 -15 22 -15 18 20 -3 19 -14 61 -25
92 -25 72 -25 79 3 106 38 35 59 74 52 96 -4 14 2 25 25 41 35 25 37 42 11 79
-46 65 -188 124 -296 124 -47 0 -135 -19 -148 -32 -6 -6 -39 -11 -72 -11 -52
0 -68 -5 -101 -28 -50 -36 -191 -102 -218 -102 -7 0 -25 -11 -39 -24 -15 -14
-44 -37 -64 -53 -21 -15 -41 -32 -45 -38 -3 -5 -21 -26 -38 -45 -44 -48 -58
-84 -66 -173 -6 -72 18 -264 35 -277 4 -3 22 -25 41 -50 19 -25 52 -62 73 -82
38 -38 141 -118 152 -118 3 0 17 -12 31 -28 14 -15 28 -25 31 -24 2 2 31 -15
64 -38 61 -43 79 -80 39 -80 -11 0 -20 -6 -20 -13 0 -8 -11 -24 -25 -37 -20
-19 -27 -21 -40 -10 -12 10 -16 9 -21 -3 -8 -21 3 -37 21 -30 24 9 19 -50 -5
-65 -17 -11 -20 -10 -20 7 0 11 6 22 13 25 6 3 -1 3 -17 -1 -17 -3 -31 -1 -36
7 -4 6 -23 15 -41 19 -23 5 -35 13 -37 26 -3 20 -52 52 -52 34 0 -5 4 -9 8 -9
7 0 32 -57 32 -73 0 -4 -24 -4 -54 -1 -40 5 -62 2 -86 -10 -18 -9 -39 -16 -47
-16 -7 0 -13 -9 -13 -20 0 -17 -7 -20 -39 -20 -31 0 -44 -6 -60 -27 -20 -25
-20 -27 -4 -45 41 -45 11 -98 -56 -98 -40 0 -48 16 -22 44 12 12 21 30 21 39
0 9 5 19 10 22 16 10 11 26 -7 23 -13 -2 -21 9 -31 42 -21 73 -24 75 -81 72
-51 -3 -52 -3 -45 22 5 21 3 25 -10 20 -8 -3 -31 4 -51 16 -23 14 -44 20 -59
16 -31 -8 -119 9 -124 23 -2 6 -11 11 -19 11 -9 0 -25 9 -37 20 -12 11 -38 34
-58 51 -43 36 -48 49 -15 49 12 0 29 5 37 10 11 7 25 -1 56 -35 38 -40 43 -43
61 -30 15 10 19 22 15 45 -4 25 -1 32 17 37 28 7 27 23 -1 23 -13 0 -32 7 -42
15 -17 13 -18 15 -3 15 12 0 17 8 17 29 0 33 -14 41 -68 41 -54 0 -67 11 -54
46 l10 29 1 -32 c1 -32 3 -33 42 -33 25 0 38 4 34 10 -4 6 -19 9 -33 8 -24 -3
-27 1 -30 30 -2 24 -8 32 -23 32 -10 0 -19 -4 -19 -9 0 -5 -12 -24 -27 -41
-22 -27 -28 -29 -35 -16 -5 9 -18 16 -28 16 -14 0 -20 7 -20 21 0 16 4 19 20
14 11 -4 20 -2 20 4 0 6 11 11 25 11 23 0 25 4 25 40 0 22 -5 40 -11 40 -5 0
-7 5 -4 10 8 13 -6 13 -25 -1 -11 -8 -12 -12 -2 -16 24 -10 11 -32 -25 -42
-54 -15 -61 -14 -80 16 -10 16 -21 31 -25 34 -5 3 -1 14 7 25 32 43 13 68 -64
80 -35 6 -41 10 -41 30 0 27 -15 31 -36 9 -20 -20 -44 -19 -44 1 0 9 -6 14
-13 11 -6 -2 -12 -14 -12 -27 -1 -31 -33 -44 -89 -36 -44 7 -46 8 -46 42 0 43
-25 69 -76 78 -22 4 -49 14 -61 22 -20 13 -23 13 -23 -1 0 -9 -9 -15 -24 -15
-14 0 -28 -4 -31 -10 -8 -13 -25 -13 -25 0 0 6 7 10 15 10 8 0 15 5 15 10 0 6
-8 10 -18 10 -11 0 -24 11 -30 25 -14 31 -28 32 -43 4 -8 -16 -8 -23 0 -29 9
-5 8 -10 -4 -20 -12 -10 -15 -10 -15 3 0 20 -36 41 -45 27 -3 -5 3 -10 14 -10
18 0 19 -3 9 -25 -11 -23 -67 -65 -89 -65 -5 0 -19 9 -31 20 -12 11 -28 20
-35 20 -10 0 -12 9 -8 33 5 27 2 34 -16 42 -39 17 -51 46 -34 79 15 27 12 51
-5 41 -4 -3 -21 2 -36 10 -37 19 -53 19 -76 -2 -15 -14 -21 -15 -27 -4 -10 16
-53 11 -59 -8 -3 -10 2 -12 24 -8 19 3 32 0 41 -11 9 -14 16 -15 31 -6 13 8
24 9 36 2 14 -8 15 -12 5 -18 -7 -5 -14 -19 -16 -31 -4 -29 0 -27 -58 -31 -46
-3 -50 -1 -49 19 0 16 -7 24 -27 28 -43 10 -51 67 -11 79 10 2 -1 2 -23 -1
-49 -7 -83 -38 -68 -62 14 -22 -33 -64 -62 -54 -11 3 -53 7 -94 7 -50 1 -76 5
-79 14 -2 7 -21 12 -48 12 -38 0 -44 3 -44 21 0 16 -4 19 -22 14 -45 -14 -88
-37 -88 -49 0 -7 -3 -8 -8 0 -4 5 -28 25 -54 43 -33 24 -52 31 -68 26 -25 -8
-43 -46 -26 -57 7 -5 5 -8 -5 -8 -9 0 -30 -7 -45 -15 -41 -21 -57 -19 -51 5 6
23 -6 26 -25 6 -11 -11 -19 -11 -34 -3 -17 10 -17 12 11 17 28 6 27 7 -17 14
-27 5 -48 13 -48 18 0 5 -18 -1 -40 -13 -22 -13 -40 -28 -40 -35 0 -18 -28
-26 -102 -30 -69 -3 -93 11 -38 23 17 3 33 10 36 14 3 5 17 6 31 3 18 -5 24
-4 19 5 -7 11 -1 15 45 25 15 3 34 17 44 32 l17 26 -64 -4 c-58 -3 -64 -1 -66
17 0 11 -6 21 -12 23 -5 2 -8 8 -4 13 3 5 -9 9 -26 9 -18 0 -29 -4 -25 -10 4
-6 -5 -8 -22 -4 -24 5 -31 1 -42 -20 -27 -49 -81 -43 -107 13 -10 20 -17 39
-16 44 1 4 -3 7 -8 7 -6 0 -10 13 -10 30 0 23 -7 33 -30 45 -16 8 -38 15 -49
15 -21 0 -36 31 -29 60 2 7 -11 23 -28 34 -17 12 -29 27 -26 34 4 14 32 16 32
2 0 -5 7 -10 15 -10 8 0 15 5 15 10 0 6 -7 10 -15 10 -8 0 -15 4 -15 9 0 9
-44 -2 -90 -23 -27 -13 -70 -10 -70 4 0 5 -3 15 -6 23 -4 11 6 16 40 21 25 4
46 11 46 15 0 5 -11 20 -24 34 -18 19 -21 28 -12 37 8 8 6 15 -8 26 -11 8 -14
14 -7 14 7 0 10 4 7 9 -3 5 -31 12 -61 16 -50 6 -55 9 -55 31 0 20 5 24 30 24
34 0 34 -1 20 36 -18 46 -20 105 -5 111 27 10 85 -17 91 -43 4 -16 13 -24 27
-24 16 0 18 3 9 12 -7 7 -12 25 -12 40 0 23 -4 28 -24 28 -14 0 -28 5 -31 11
-4 5 -19 15 -33 20 -26 10 -26 11 -8 24 16 12 17 17 6 30 -7 8 -18 15 -26 15
-24 0 -27 22 -6 39 18 14 20 21 13 53 -9 37 -36 73 -54 73 -6 0 -12 6 -14 13
-3 6 0 12 6 12 6 0 11 7 11 15 0 8 7 15 15 15 11 0 15 11 15 35 0 22 6 38 15
41 19 8 19 15 1 39 -12 16 -16 17 -30 6 -9 -7 -16 -28 -16 -46 0 -25 -5 -34
-21 -38 -16 -4 -19 -11 -14 -26 4 -13 -1 -27 -15 -41 -25 -25 -40 -18 -22 10
7 12 8 20 2 20 -5 0 -10 -4 -10 -10 0 -23 -32 -8 -41 20 -7 19 -18 30 -30 30
-21 0 -39 35 -39 76 0 15 6 24 15 24 18 0 20 16 3 23 -9 4 -9 8 -3 14 6 4 19
25 29 46 13 25 34 44 64 60 47 23 59 38 46 58 -5 9 -11 7 -21 -7 -11 -15 -15
-16 -22 -5 -6 10 -13 11 -27 3 -14 -8 -28 -5 -57 10 -34 17 -41 18 -60 5 -27
-17 -73 -7 -69 15 1 9 -10 19 -30 26 -27 8 -29 10 -10 11 12 1 25 8 29 16 8
21 -6 33 -17 15 -5 -8 -13 -11 -17 -6 -4 5 -2 11 5 13 15 6 16 63 0 63 -9 0
-9 3 0 12 19 19 15 26 -24 38 -32 11 -35 14 -29 41 7 33 -13 89 -32 89 -7 0
-18 9 -25 20 -7 11 -18 20 -25 20 -8 0 -13 15 -13 40 0 38 2 40 30 40 19 0 30
5 30 14 0 18 -27 46 -45 46 -7 0 -15 10 -19 23 -9 32 -7 44 4 27 7 -11 14 -12
27 -4 32 20 26 34 -14 35 -21 1 -49 2 -63 3 -14 1 -28 -3 -33 -9 -4 -6 -12 -3
-21 8 -10 13 -28 17 -70 17 -36 0 -55 -4 -51 -10 3 -6 15 -10 26 -10 11 0 22
-7 25 -15 4 -8 12 -15 19 -15 23 0 28 -21 11 -38 -11 -12 -16 -13 -16 -3 0 9
-10 11 -32 7 -22 -4 -27 -3 -14 2 19 8 19 9 -1 14 -12 3 -22 16 -25 32 -6 31
22 116 38 116 7 0 15 11 18 25 4 14 13 25 21 25 8 0 15 7 15 15 0 8 5 15 10
15 18 0 10 22 -10 27 -11 3 -20 9 -20 14 0 5 -8 9 -19 9 -10 0 -24 7 -31 15
-7 8 -21 15 -31 15 -15 0 -19 8 -19 39 0 22 5 41 12 43 7 3 -7 13 -30 24 -55
25 -56 47 -2 38 27 -4 40 -3 40 5 0 6 -7 11 -17 11 -15 0 -15 1 0 18 10 10 17
30 17 44 0 22 -6 27 -37 33 -21 4 -40 10 -43 15 -3 4 -15 4 -27 -1 -20 -7 -23
-16 -23 -59 l0 -50 -40 0 -40 0 0 40 c0 36 3 40 25 40 30 0 33 16 4 23 -23 6
-17 27 7 27 8 0 14 7 14 15 0 8 7 15 15 15 19 0 19 4 -2 43 -9 18 -16 38 -15
45 2 8 -11 12 -38 12 -40 0 -40 0 -40 -38 0 -42 -32 -83 -66 -83 -43 -1 -134
14 -134 22 0 13 42 39 80 49 22 7 43 22 56 43 13 21 27 31 41 30 13 -2 23 5
26 17 9 35 -51 53 -95 29 -17 -9 -31 -6 -74 16 -54 28 -69 51 -36 57 10 2 13
6 6 10 -6 4 -21 -2 -33 -13 -12 -12 -25 -18 -29 -14 -4 4 -1 10 6 12 6 3 12
13 12 23 0 10 9 20 19 23 24 6 47 42 55 85 5 29 3 32 -19 32 -15 0 -25 -6 -25
-15 0 -8 -24 -27 -52 -41 -29 -15 -54 -30 -56 -35 -4 -10 -82 -13 -82 -4 0 14
32 65 40 65 6 0 10 7 10 15 0 8 7 15 15 15 21 0 19 13 -5 35 -10 9 -28 15 -38
13 -10 -3 -35 3 -55 12 -20 10 -45 16 -56 13 -13 -3 -21 2 -26 16 -3 11 -15
23 -26 26 -10 4 -19 10 -19 15 0 5 -14 8 -30 8 -20 -1 -44 10 -70 30 -21 18
-44 32 -49 32 -6 0 -11 4 -11 8 0 7 -57 32 -73 32 -4 0 -7 -7 -7 -16 0 -14 -8
-16 -55 -11 -41 4 -59 2 -70 -9 -18 -19 -19 -41 -2 -47 6 -3 2 -6 -10 -6 -14
-1 -23 5 -23 14 0 10 -11 15 -32 16 l-33 0 33 16 c17 9 32 23 32 30 0 7 12 13
28 13 l27 1 -24 13 -24 13 33 12 c41 14 120 15 120 1 0 -17 74 -11 108 10 33
20 44 61 21 76 -15 9 -90 -17 -96 -33 -6 -15 -33 -18 -33 -4 0 5 -14 14 -31
20 -26 9 -30 13 -19 26 6 8 20 17 31 20 39 13 17 25 -43 24 -57 0 -126 -16
-88 -19 9 -1 6 -5 -8 -10 -12 -5 -30 -23 -40 -40 -13 -22 -24 -30 -45 -30 -23
0 -28 4 -25 22 4 27 28 36 29 11 0 -16 1 -16 9 2 15 34 11 45 -15 45 -22 0
-25 4 -25 40 0 29 4 40 15 40 8 0 15 -7 15 -15 0 -16 70 -50 79 -38 3 5 23 17
43 27 21 11 38 22 38 26 0 11 -47 29 -91 36 -25 4 -44 14 -50 27 -9 16 -13 17
-21 6 -7 -11 -11 -11 -15 -1 -2 6 -11 12 -19 12 -8 0 -14 5 -14 10 0 6 -7 10
-15 10 -8 0 -15 6 -15 14 0 7 7 19 15 26 8 7 15 16 15 20 0 14 -61 23 -73 11
-6 -6 -25 -11 -42 -11 -25 -1 -27 -2 -12 -11 22 -13 22 -45 0 -58 -17 -10 -16
-11 2 -12 11 -1 30 0 42 0 31 3 41 -20 15 -37 -22 -14 -20 -42 4 -42 20 0 17
-24 -6 -45 -19 -17 -21 -17 -60 0 -22 10 -45 24 -51 32 -6 7 -21 13 -33 13
-34 1 -79 47 -78 80 0 19 -7 33 -22 44 -20 13 -23 21 -18 65 4 46 3 51 -16 51
-13 0 -22 -9 -26 -25 -8 -31 -39 -40 -112 -32 -37 4 -58 2 -67 -7 -7 -7 -18
-15 -26 -17 -7 -3 10 -15 37 -27 49 -22 76 -52 47 -52 -8 0 -15 -4 -15 -10 0
-5 6 -10 14 -10 25 0 46 -30 46 -65 0 -28 -5 -35 -31 -44 -41 -14 -109 -14
-109 0 0 6 9 13 20 16 16 4 18 8 9 19 -6 8 -18 14 -25 14 -8 0 -14 7 -14 15 0
17 -58 35 -112 35 -22 0 -38 -5 -38 -11 0 -8 -4 -8 -15 1 -11 9 -19 9 -35 -3
-19 -13 -27 -13 -66 0 -42 14 -59 32 -31 34 6 0 2 4 -10 9 -13 5 -23 14 -23
20 0 5 -6 10 -14 10 -24 0 -28 -48 -7 -95 15 -35 25 -45 43 -45 35 0 79 -23
76 -40 -4 -18 -64 -31 -93 -20 -12 5 -24 17 -27 27 -3 12 -28 25 -77 41 -69
23 -72 25 -56 42 9 10 16 27 15 37 -1 10 -2 23 -1 29 1 12 45 33 77 38 29 4
31 36 3 36 -18 0 -20 3 -11 12 16 16 15 48 0 48 -7 0 -27 -14 -45 -30 -18 -17
-39 -30 -48 -30 -9 0 -25 -5 -36 -10 -13 -7 -19 -7 -19 0 0 5 -5 10 -12 10 -9
0 -9 -3 0 -12 7 -7 12 -20 12 -30 0 -9 7 -21 16 -26 13 -7 14 -11 3 -17 -7 -5
-14 -4 -17 3 -2 6 -9 9 -15 7 -12 -5 -87 56 -87 70 0 4 8 4 18 1 16 -6 16 -5
0 6 -9 7 -31 21 -48 31 -28 15 -30 20 -19 33 12 14 9 16 -21 14 -55 -4 -70 -1
-70 15 0 11 12 15 43 16 59 2 70 0 83 -17 16 -20 34 -17 34 6 0 15 6 19 22 17
17 -1 24 4 26 19 3 18 -7 25 -59 44 -56 21 -65 22 -113 10 -28 -7 -58 -21 -66
-30 -31 -35 -97 -31 -83 6 3 8 0 14 -6 14 -6 0 -11 9 -11 20 0 11 4 20 9 20
15 0 22 32 10 46 -8 10 -8 22 0 45 6 17 8 42 5 54 -3 13 -1 26 6 30 13 8 -30
45 -53 45 -16 0 -78 30 -87 42 -3 4 -22 14 -41 22 -73 31 -72 66 4 79 28 4 37
2 37 -9 0 -8 5 -14 11 -14 6 0 8 6 5 13 -3 6 -9 19 -12 28 -3 9 -15 21 -27 27
l-22 11 23 0 c19 1 22 5 17 22 -5 14 -3 19 4 15 16 -11 25 41 10 57 -33 32
-69 24 -69 -15 0 -10 -7 -18 -15 -18 -8 0 -15 -4 -15 -9 0 -5 7 -16 15 -25 20
-19 19 -40 -1 -32 -9 3 -22 6 -30 6 -8 0 -14 7 -14 16 0 9 -9 27 -20 42 -25
30 -14 45 30 44 20 0 30 4 30 14 0 8 -3 14 -7 14 -5 0 -8 19 -8 42 0 37 -3 41
-25 43 -14 1 -28 -3 -32 -9 -5 -6 -8 -2 -8 12 0 13 -6 22 -15 22 -11 0 -15 11
-15 38 0 30 -6 44 -28 63 -36 30 -89 59 -109 59 -13 0 -13 3 -3 15 8 10 30 15
60 15 50 0 110 26 110 47 0 18 -80 92 -95 87 -7 -3 -29 6 -49 20 -20 13 -50
27 -66 31 -17 4 -30 11 -30 16 0 5 -7 9 -15 9 -11 0 -15 11 -15 39 0 43 18 65
45 55 29 -11 36 17 12 46 -21 25 -22 25 -40 7 -11 -11 -25 -16 -35 -12 -9 4
-24 8 -32 9 -10 2 -17 18 -20 47 -3 24 -11 53 -17 64 -11 17 -14 18 -23 5 -5
-8 -10 -34 -10 -57 0 -51 -20 -73 -66 -73 -49 0 -74 16 -74 46 0 17 -8 28 -27
35 -16 6 -36 15 -45 20 -32 16 -39 10 -37 -33 2 -38 -2 -48 -35 -80 -27 -27
-47 -38 -68 -38 l-31 0 5 52 c5 51 -6 108 -22 108 -4 0 -20 -25 -36 -55 -29
-55 -54 -78 -54 -48 0 8 -11 26 -25 39 -20 18 -30 21 -52 14 -61 -18 -83 -35
-83 -60 0 -18 -8 -29 -30 -38 -16 -8 -30 -20 -30 -28 0 -17 -26 -19 -36 -3 -3
6 -1 15 6 19 9 5 8 9 -3 13 -8 3 -22 19 -30 36 -13 26 -13 31 -1 31 24 0 15
39 -17 72 -27 29 -32 31 -40 15 -6 -9 -21 -17 -34 -17 -14 0 -25 -4 -25 -10 0
-5 -18 -10 -40 -10 -30 0 -40 -4 -40 -16 0 -11 -5 -14 -17 -9 -10 4 -38 10
-63 12 -48 6 -71 18 -69 37 2 22 -13 55 -28 61 -9 3 -23 -1 -33 -10 -20 -18
-55 -19 -99 -4 -24 9 -39 9 -58 0 -22 -10 -27 -8 -45 14 -12 15 -30 25 -46 26
-25 0 -25 1 8 14 l35 13 -29 7 c-19 5 -31 4 -36 -6 -7 -11 -12 -10 -27 3 -10
9 -27 18 -38 20 -23 5 -116 -28 -128 -45 -9 -14 -35 16 -44 51 -4 16 -12 22
-34 22 -27 0 -29 -3 -29 -40 0 -38 -13 -54 -23 -27 -4 10 -6 10 -6 0 -1 -7 -9
-13 -19 -13 -24 0 -48 69 -29 83 7 5 2 6 -15 3 -22 -5 -34 1 -62 30 -37 38
-46 57 -22 48 8 -3 16 4 19 17 5 17 11 21 31 17 14 -3 26 -1 26 3 0 5 18 9 40
9 29 0 40 4 40 15 0 11 -11 15 -40 15 -22 0 -40 5 -40 11 0 6 -7 3 -16 -5 -20
-20 -43 -20 -51 0 -3 9 -9 12 -12 7 -10 -13 -49 -33 -66 -33 -8 0 -15 -3 -15
-7 0 -5 -18 -8 -40 -8 -22 0 -40 4 -40 10 0 5 -5 4 -12 -3 -17 -17 -39 -15
-52 4 -10 13 -14 10 -26 -20 -15 -40 -44 -48 -53 -16 -4 14 -13 20 -34 20 -32
-1 -76 -29 -55 -37 6 -3 12 -15 12 -28 0 -13 5 -27 10 -30 17 -10 11 -25 -10
-25 -11 0 -20 7 -20 15 0 11 -7 14 -23 10 -15 -4 -28 -1 -36 9 -8 9 -19 16
-27 16 -32 0 -39 95 -8 107 10 3 14 23 14 61 0 53 -1 54 -18 39 -10 -10 -30
-17 -43 -17 -14 0 -31 -6 -37 -12 -17 -17 -61 37 -62 75 0 16 -4 26 -9 23 -18
-11 -44 35 -47 81 -1 26 -7 49 -13 51 -6 2 -11 23 -11 46 0 66 -26 141 -56
161 -16 10 -23 22 -20 31 6 15 -1 26 -40 67 -13 13 -24 40 -26 67 -3 25 -15
67 -28 94 -12 28 -25 74 -29 103 -4 29 -15 61 -24 71 -9 10 -17 26 -17 34 0
49 -28 61 -68 30 -24 -19 -28 -53 -35 -274 -2 -54 -6 -101 -10 -104 -4 -4 -4
-17 -1 -29 3 -13 -2 -37 -11 -55 -13 -26 -15 -49 -9 -135 7 -103 6 -104 -20
-128 -21 -19 -26 -33 -26 -70 0 -44 -1 -46 -30 -45 -18 1 -30 6 -30 15 0 7 -8
13 -18 13 -21 0 -52 -30 -52 -49 0 -7 -5 -9 -12 -5 -7 5 -9 0 -6 -14 3 -12 0
-26 -7 -32 -7 -6 -11 -20 -8 -30 8 -30 -26 -25 -37 6 -6 14 -14 23 -19 20 -13
-8 -66 88 -95 170 -46 133 -58 159 -82 185 -13 14 -24 29 -24 33 0 4 -11 31
-25 60 -13 28 -36 88 -50 131 -14 44 -34 91 -44 105 -10 14 -24 50 -31 80 -7
30 -16 64 -21 75 -4 11 -22 53 -38 94 -17 40 -31 79 -31 86 0 23 -34 75 -53
81 -9 3 -14 10 -11 16 5 7 0 9 -14 6 -25 -7 -34 11 -25 52 4 22 0 36 -12 50
-28 31 -38 25 -31 -17 4 -21 9 -74 12 -118 2 -44 11 -108 20 -141 15 -60 15
-63 -7 -115 -30 -72 -36 -79 -72 -79 -24 0 -41 -11 -74 -46 -24 -26 -43 -52
-43 -58 0 -6 -13 -23 -30 -38 -20 -17 -30 -22 -30 -12 0 8 -8 14 -19 14 -22 0
-95 103 -109 154 -6 19 -21 50 -35 68 -13 18 -23 38 -20 44 2 6 -3 17 -12 24
-8 7 -15 19 -15 26 0 7 -11 37 -24 66 -13 29 -27 64 -31 78 -4 14 -19 45 -33
70 -36 61 -91 202 -107 274 -9 36 -24 69 -39 85 -14 15 -26 34 -26 43 0 8 -11
26 -24 39 -13 13 -40 52 -60 85 -19 34 -51 80 -71 104 -19 23 -35 46 -35 51 0
5 -11 27 -25 49 -14 22 -25 51 -25 64 0 14 -4 28 -10 31 -5 3 -10 15 -10 25 0
10 -17 40 -39 67 -21 27 -42 59 -45 71 -4 12 -11 22 -16 22 -4 0 -16 26 -26
58 -10 31 -33 77 -51 101 -18 25 -36 56 -40 70 -3 14 -9 31 -13 36 -4 6 -11
21 -15 33 -4 13 -21 44 -38 69 -39 55 -39 56 -68 120 -12 29 -20 56 -16 59 3
3 -7 19 -21 36 -26 28 -66 112 -99 208 -9 25 -20 49 -24 54 -5 6 -9 16 -9 23
0 14 -19 58 -75 178 -54 115 -65 142 -65 163 0 10 -14 36 -30 57 -17 21 -33
50 -36 64 -11 51 -37 116 -58 142 -51 64 -61 85 -68 131 -4 31 -15 60 -30 76
-45 51 -68 91 -78 136 -10 47 -30 98 -41 106 -4 3 -14 28 -23 55 -9 28 -21 59
-26 70 -5 11 -18 43 -29 71 -11 29 -31 64 -46 80 -14 15 -28 39 -32 53 -3 14
-9 31 -14 36 -4 6 -13 33 -19 60 -7 28 -25 86 -41 131 -16 44 -29 88 -29 97 0
10 -9 36 -19 60 -39 86 -54 133 -62 182 -4 28 -15 77 -24 110 -9 33 -18 96
-20 140 -2 44 -8 105 -15 135 -7 30 -13 69 -15 85 -2 17 -8 50 -13 75 -6 25
-10 109 -9 187 1 103 -3 145 -12 157 -10 12 -11 25 -3 59 11 43 7 82 -10 104
-6 7 -12 56 -15 110 -4 79 -9 105 -27 133 -54 84 -58 93 -52 121 3 15 1 31 -5
34 -6 4 -7 32 -3 71 4 45 2 64 -6 64 -15 0 -10 110 6 130 19 23 33 97 24 128
-5 20 -3 32 11 47 9 11 33 49 52 85 30 57 34 72 30 117 -4 41 -2 54 14 70 19
19 21 41 8 106 -6 29 -3 42 9 56 9 10 16 22 16 28 0 5 10 15 23 21 12 6 16 11
10 11 -8 1 -13 16 -13 41 0 22 -4 40 -10 40 -5 0 -10 10 -10 21 0 12 -10 50
-22 84 -21 63 -21 64 -2 92 33 49 40 67 38 98 0 17 5 38 12 49 13 19 8 46 -9
57 -6 4 0 21 14 40 13 19 23 40 21 46 -2 7 6 13 18 13 16 0 20 6 20 30 0 19 5
30 14 30 8 0 17 13 21 29 3 16 22 55 41 86 19 32 34 66 34 76 0 11 5 19 10 19
6 0 10 20 10 45 0 25 4 45 10 45 5 0 16 16 24 35 8 19 22 38 31 41 20 8 19 54
-3 70 -16 12 -16 14 2 49 14 26 16 39 8 47 -13 13 8 38 33 38 11 0 15 5 12 15
-4 8 -2 17 4 21 6 3 14 17 19 30 5 13 15 23 22 22 7 -2 15 13 18 34 4 20 11
43 17 50 5 7 16 36 23 63 6 28 14 58 17 68 2 9 12 17 21 17 10 0 29 11 43 24
14 13 42 31 62 41 23 10 37 24 37 35 0 10 9 22 20 25 11 3 20 13 20 21 0 8 9
23 20 34 11 11 20 25 20 30 0 6 5 10 11 10 7 0 22 11 35 25 14 15 29 22 38 19
10 -4 16 -1 16 9 0 8 -7 18 -16 21 -10 4 -13 13 -9 26 3 10 1 29 -5 40 -8 16
-8 28 2 50 7 17 16 30 20 30 4 0 15 9 25 19 10 10 27 20 38 23 21 3 36 58 16
58 -6 0 -11 7 -11 16 0 8 4 13 9 9 21 -12 18 13 -3 36 l-24 24 25 33 c15 20
23 43 21 59 -2 21 3 30 21 39 14 7 25 22 26 34 2 25 32 49 63 50 28 0 28 7 -4
36 -25 24 -24 50 1 40 13 -5 118 44 163 75 l23 16 -36 36 c-19 19 -35 40 -35
46 0 15 33 14 48 -1 10 -10 15 -10 23 2 8 11 12 12 16 3 6 -15 33 -17 33 -3 0
6 7 10 15 10 8 0 15 4 15 9 0 13 56 34 93 35 27 1 32 5 33 26 1 45 4 49 34 65
39 20 38 31 -5 45 -39 13 -41 17 -19 45 10 14 17 16 22 8 5 -8 13 -9 22 -3 8
6 31 10 50 10 31 0 37 5 54 40 12 24 26 40 37 40 19 0 79 52 79 69 0 6 9 11
21 11 19 0 20 4 14 40 -6 33 -4 40 9 40 9 0 16 -6 16 -13 0 -8 13 -13 34 -14
37 -1 46 12 46 75 0 24 -4 32 -17 32 -17 1 -17 1 0 11 9 6 15 14 12 20 -4 5 1
9 9 9 33 0 15 28 -21 33 -20 4 -1424 7 -3120 7 l-3083 0 0 -10800z m16533
10753 c-7 -2 -19 -2 -25 0 -7 3 -2 5 12 5 14 0 19 -2 13 -5z m359 -85 c20 -20
21 -23 5 -26 -9 -2 -17 -8 -17 -13 0 -14 -36 -11 -49 5 -9 11 -10 20 -1 35 14
27 34 27 62 -1z m-11292 -493 c0 -8 -7 -15 -15 -15 -16 0 -20 12 -8 23 11 12
23 8 23 -8z m12023 -26 c-8 -8 -16 -8 -30 0 -16 9 -14 10 12 11 21 0 26 -3 18
-11z m-23 -59 c21 -18 21 -20 5 -36 -19 -19 -31 -11 -40 29 -8 32 3 35 35 7z
m-120 0 c0 -5 -4 -10 -10 -10 -5 0 -10 5 -10 10 0 6 5 10 10 10 6 0 10 -4 10
-10z m240 -135 c17 10 24 -25 8 -41 -22 -23 -107 -29 -148 -11 -34 15 -35 15
-7 16 20 1 27 6 27 20 0 16 8 20 43 23 23 2 47 -1 54 -5 7 -5 17 -6 23 -2z
m140 -282 c-1 -20 -30 -45 -45 -39 -19 7 -11 26 11 26 8 0 14 5 14 10 0 6 5
10 10 10 6 0 10 -3 10 -7z m30 -218 c0 -8 5 -15 10 -15 6 0 10 -18 10 -40 0
-33 -3 -40 -20 -40 -17 0 -20 7 -20 39 0 22 -4 43 -10 46 -17 10 -11 25 10 25
11 0 20 -7 20 -15z m60 -70 c0 -7 -7 -18 -15 -25 -13 -11 -15 -7 -15 25 0 32
2 36 15 25 8 -7 15 -18 15 -25z m-118 -85 c7 -11 21 -20 31 -20 16 0 18 -5 12
-27 -4 -16 -11 -34 -17 -40 -15 -18 -57 -16 -65 3 -3 9 -27 25 -52 36 -41 18
-44 21 -25 28 12 5 25 13 29 19 3 6 10 9 15 6 5 -3 11 -1 15 5 10 17 44 11 57
-10z m-232 -24 c0 -8 11 -17 25 -20 15 -4 27 -16 31 -31 7 -27 19 -33 28 -12
3 6 3 0 0 -14 -4 -20 0 -28 21 -37 40 -18 92 -15 115 8 l20 20 0 -39 c0 -33
-4 -40 -22 -43 -15 -2 -24 -11 -26 -26 -3 -20 -7 -22 -40 -16 -48 9 -51 11
-46 32 6 22 -40 50 -98 60 -40 7 -43 10 -46 40 -3 27 1 35 17 39 23 6 27 18
11 28 -5 3 -10 10 -10 16 0 5 5 9 10 9 6 0 10 -6 10 -14z m503 -359 c10 -4 15
-12 12 -17 -5 -8 -11 -8 -20 0 -11 9 -14 6 -17 -14 -3 -22 -5 -23 -22 -11 -18
14 -18 15 -1 41 9 15 20 22 24 17 3 -5 14 -12 24 -16z m403 -2235 c14 -9 35
-70 26 -76 -6 -3 -53 -2 -84 3 -16 2 -7 36 15 58 25 25 28 26 43 15z m794
-2366 c0 -3 -4 -8 -10 -11 -5 -3 -10 -1 -10 4 0 6 5 11 10 11 6 0 10 -2 10 -4z
m1790 -2436 c0 -5 -4 -10 -10 -10 -5 0 -10 5 -10 10 0 6 5 10 10 10 6 0 10 -4
10 -10z m708 -1017 c-2 -10 -10 -18 -18 -18 -8 0 -16 8 -18 18 -2 12 3 17 18
17 15 0 20 -5 18 -17z m257 -33 c3 -5 1 -10 -4 -10 -6 0 -11 5 -11 10 0 6 2
10 4 10 3 0 8 -4 11 -10z m779 -479 c3 -5 21 -12 40 -15 33 -6 33 -7 25 -44
-16 -79 -18 -81 -51 -70 -21 8 -26 14 -19 21 20 20 12 37 -26 54 -45 22 -52
40 -21 52 30 13 46 13 52 2z m363 -327 c-3 -3 -12 -4 -19 -1 -8 3 -5 6 6 6 11
1 17 -2 13 -5z m-14559 -106 c3 -27 2 -28 -42 -28 -34 0 -46 4 -46 15 0 8 7
15 15 15 9 0 18 7 22 16 10 26 48 13 51 -18z m65 6 c20 -7 23 -34 4 -34 -20 0
-58 30 -51 41 3 6 11 8 17 5 7 -4 20 -9 30 -12z m-303 -14 c0 -5 -2 -10 -4
-10 -3 0 -8 5 -11 10 -3 6 -1 10 4 10 6 0 11 -4 11 -10z m240 -120 c0 -5 -18
-10 -39 -10 -22 0 -41 -5 -44 -12 -2 -7 -8 -10 -12 -6 -4 4 -1 14 6 22 15 17
89 22 89 6z m30 -20 c0 -5 -7 -10 -16 -10 -8 0 -12 5 -9 10 3 6 10 10 16 10 5
0 9 -4 9 -10z m700 -65 c18 -22 -9 -48 -33 -30 -9 7 -17 20 -17 29 0 20 33 21
50 1z m358 -112 c2 -1 -8 -9 -22 -18 -21 -14 -29 -15 -41 -5 -19 16 -19 30 0
30 8 0 15 7 15 17 0 14 3 14 23 -3 12 -10 24 -20 25 -21z m941 20 c18 -12 28
-14 41 -5 24 15 26 11 22 -44 -3 -34 -7 -43 -14 -33 -8 11 -8 10 -4 -4 3 -10
6 -27 6 -38 0 -10 6 -19 14 -19 25 0 67 -41 64 -64 -2 -17 -10 -21 -38 -21
-32 0 -35 3 -35 29 -1 15 -10 39 -22 52 -19 21 -30 24 -95 24 -40 0 -89 -4
-107 -10 -28 -8 -38 -6 -53 7 -23 21 -23 33 2 33 12 0 22 9 26 24 3 14 15 27
30 30 13 4 29 16 35 27 9 17 13 19 20 8 7 -12 13 -11 36 3 35 22 43 22 72 1z
m-1629 -7 c0 -9 -7 -12 -20 -9 -11 3 -17 9 -14 14 8 14 34 10 34 -5z m14410 0
c0 -3 -4 -8 -10 -11 -5 -3 -10 -1 -10 4 0 6 5 11 10 11 6 0 10 -2 10 -4z
m-13273 -56 c12 -25 12 -25 -38 -28 -40 -2 -54 1 -64 15 -20 27 0 45 49 41 32
-2 43 -8 53 -28z m202 -6 c39 -49 23 -68 -30 -37 -39 23 -38 57 3 62 4 1 16
-11 27 -25z m216 -133 c5 -8 -20 -41 -31 -41 -2 0 -4 11 -4 25 0 25 23 35 35
16z m190 -201 c3 -5 -3 -10 -14 -10 -12 0 -21 5 -21 10 0 6 6 10 14 10 8 0 18
-4 21 -10z m-25 -45 c-32 -18 -40 -18 -40 0 0 10 10 15 33 15 l32 -1 -25 -14z
m189 -24 c9 -16 7 -20 -13 -25 -37 -9 -58 2 -45 25 13 24 45 24 58 0z m13438
-963 c8 -16 27 -29 55 -38 40 -11 41 -13 20 -21 -23 -9 -23 -9 -5 -34 11 -16
32 -27 56 -31 35 -6 38 -9 32 -35 -5 -22 -2 -30 16 -39 12 -7 18 -15 13 -19
-5 -3 -16 -15 -24 -25 -14 -19 -13 -19 38 -13 28 3 52 3 52 -1 0 -4 8 -8 18
-9 42 -3 72 -23 72 -47 0 -14 -4 -28 -10 -31 -5 -3 -10 -13 -10 -21 0 -8 4
-13 9 -9 5 3 13 0 16 -5 11 -18 8 -141 -3 -152 -20 -20 -1 -77 39 -118 36 -37
55 -81 27 -64 -7 5 -9 2 -5 -9 15 -41 19 -89 7 -97 -9 -6 -7 -13 10 -30 21
-21 22 -27 16 -150 -4 -92 -2 -142 8 -181 8 -29 11 -62 7 -73 -5 -12 -9 -43
-10 -70 -1 -38 4 -55 20 -73 17 -17 26 -20 35 -12 16 13 34 3 34 -18 0 -19 12
-10 18 15 3 9 6 40 7 67 1 43 4 50 20 47 16 -3 17 -2 6 12 -12 14 -11 19 3 34
9 10 16 27 16 38 0 10 5 26 10 34 8 13 11 12 24 -5 11 -15 17 -17 27 -8 9 9 6
14 -10 25 -22 13 -29 38 -11 38 6 0 10 -6 10 -12 0 -12 98 -49 128 -48 7 0 15
-7 18 -15 4 -8 10 -12 15 -9 5 3 6 -2 3 -10 -5 -12 -10 -13 -24 -3 -24 14 -27
11 -35 -35 -6 -33 -5 -37 17 -41 l23 -4 -22 -8 c-17 -5 -23 -15 -23 -35 0 -24
4 -28 28 -27 15 1 31 6 35 12 5 5 6 0 2 -12 -3 -12 -1 -24 5 -28 17 -10 39 13
33 35 -4 13 0 20 10 20 8 0 18 -11 21 -25 4 -14 12 -25 20 -25 7 0 19 -7 26
-15 10 -13 10 -19 -4 -34 -12 -14 -16 -29 -11 -52 6 -39 -2 -55 -30 -60 -13
-3 -20 -12 -20 -29 0 -19 -7 -26 -30 -31 -16 -4 -22 -7 -12 -8 9 0 17 -5 17
-10 0 -16 -21 -24 -33 -12 -30 30 -69 -2 -58 -48 9 -34 29 -37 41 -7 6 16 17
26 29 26 11 0 23 5 26 10 7 12 75 13 91 2 6 -4 14 -16 18 -27 5 -13 10 -15 13
-7 7 19 20 14 26 -10 4 -13 0 -33 -9 -46 -15 -22 -14 -26 7 -48 12 -13 31 -24
41 -24 13 0 18 -7 18 -27 -1 -29 -40 -83 -61 -83 -8 0 -8 -4 2 -16 8 -10 21
-13 36 -9 13 3 23 1 23 -4 0 -6 6 -8 13 -5 8 3 20 -2 27 -11 10 -12 16 -13 26
-4 11 9 14 5 14 -20 0 -23 -5 -31 -18 -31 -23 0 -42 -19 -42 -42 0 -10 -7 -18
-16 -18 -18 0 -53 -38 -54 -59 0 -9 -7 -11 -21 -8 -16 4 -19 2 -15 -10 4 -9 1
-22 -5 -29 -9 -11 -8 -18 2 -31 11 -13 11 -17 2 -20 -7 -3 -13 -13 -13 -24 0
-10 -6 -19 -14 -19 -8 0 -17 -7 -20 -16 -3 -8 -10 -12 -16 -9 -5 3 -10 -1 -10
-9 0 -8 9 -18 20 -21 15 -5 19 -12 14 -31 -5 -21 -3 -24 22 -26 47 -3 58 -2
82 6 18 6 22 4 22 -13 0 -12 5 -21 10 -21 6 0 10 5 10 10 0 6 11 10 25 10 14
0 25 -6 25 -12 0 -9 4 -8 10 2 5 8 10 11 10 5 0 -20 -17 -38 -24 -26 -12 18
-46 13 -46 -7 0 -10 3 -22 8 -26 4 -4 7 -19 7 -33 0 -22 12 -35 43 -49 2 -1
-7 -22 -20 -48 -22 -43 -47 -61 -49 -33 0 10 -2 10 -6 0 -2 -7 -13 -13 -24
-13 -11 0 -19 -7 -19 -16 0 -11 8 -15 28 -13 60 5 72 0 72 -26 0 -18 5 -25 19
-25 10 0 25 -7 32 -16 11 -14 11 -18 -5 -29 -16 -12 -15 -14 11 -19 15 -3 49
-8 76 -12 38 -5 47 -10 47 -26 0 -13 -5 -18 -14 -15 -8 3 -26 -3 -40 -14 l-26
-20 0 20 c0 26 -12 27 -35 1 -16 -17 -16 -21 -2 -35 9 -8 19 -15 22 -15 4 0
22 -15 41 -34 29 -29 34 -39 28 -63 -4 -15 -15 -38 -26 -49 -14 -15 -17 -29
-12 -48 3 -14 2 -26 -3 -26 -4 0 -14 -9 -21 -21 -10 -16 -11 -24 -1 -35 9 -11
9 -21 1 -39 -7 -15 -8 -26 -2 -30 6 -4 10 2 10 11 0 15 3 15 23 -5 15 -13 30
-19 40 -15 13 4 17 1 17 -15 0 -21 7 -25 48 -21 12 1 25 -6 28 -14 3 -9 13
-16 20 -16 20 0 30 -30 13 -40 -11 -7 -9 -14 11 -34 29 -31 58 -33 94 -5 32
25 33 36 4 42 -22 3 -21 4 6 15 30 13 96 6 96 -9 0 -5 -18 -16 -40 -25 -31
-13 -40 -22 -40 -40 0 -13 -4 -24 -10 -24 -5 0 -10 -6 -10 -13 0 -8 -9 -22
-20 -32 -12 -10 -19 -24 -16 -31 3 -7 -4 -22 -15 -35 -10 -12 -20 -26 -20 -31
-1 -4 -2 -13 -3 -18 -2 -17 -26 -28 -47 -23 -24 7 -25 -15 -2 -32 33 -24 20
-82 -17 -70 -21 7 -67 -39 -50 -50 6 -4 9 -13 6 -21 -7 -18 32 -44 67 -44 24
0 28 -3 22 -17 -5 -10 -9 -46 -10 -81 -2 -68 13 -94 62 -113 17 -6 23 -14 19
-25 -3 -9 -6 -27 -6 -40 0 -16 -8 -28 -25 -36 -14 -6 -25 -17 -25 -25 0 -19
18 -16 23 5 4 14 6 14 12 -5 8 -25 25 -29 55 -13 16 8 23 5 37 -17 13 -19 14
-28 6 -30 -13 -5 8 -41 51 -91 15 -17 17 -25 8 -34 -23 -23 -14 -46 21 -53 45
-10 51 -15 33 -28 -26 -20 -3 -42 40 -39 26 2 42 -3 56 -18 18 -20 18 -20 -1
-41 -14 -15 -29 -20 -53 -17 -30 3 -33 0 -36 -27 l-4 -29 -18 24 c-16 21 -20
22 -36 10 -9 -8 -20 -14 -23 -12 -3 1 -7 -9 -9 -23 -3 -20 1 -25 18 -25 30 0
60 -18 60 -35 0 -16 16 -21 22 -7 2 4 20 16 41 26 24 13 37 26 38 40 0 20 1
20 11 -1 6 -13 20 -23 31 -23 18 0 18 -1 3 -25 -9 -13 -16 -35 -16 -48 0 -28
59 -96 78 -90 17 6 15 -19 -3 -43 -27 -35 -11 -80 20 -54 22 18 29 -7 14 -52
-13 -40 -45 -64 -63 -47 -16 14 -36 10 -36 -7 0 -9 -9 -18 -20 -21 -13 -3 -20
-14 -20 -28 0 -13 -4 -25 -10 -27 -14 -5 -21 -98 -6 -98 13 0 41 -58 33 -67
-12 -12 -39 8 -35 25 7 26 -18 44 -55 40 -27 -2 -33 -8 -35 -31 -2 -16 2 -35
8 -42 7 -8 10 -22 6 -30 -3 -10 4 -27 19 -43 l25 -27 -35 -3 c-36 -3 -50 -22
-16 -22 11 0 21 -5 23 -11 5 -15 74 6 81 24 3 7 3 -6 0 -28 -4 -22 -10 -41
-14 -43 -5 -2 -4 -13 2 -24 9 -16 5 -27 -17 -59 -15 -21 -33 -39 -40 -39 -8 0
-14 -7 -14 -16 0 -27 -28 2 -51 52 -21 47 -43 64 -83 64 -23 0 -25 2 -16 26
12 32 4 67 -21 90 -10 9 -19 27 -19 40 0 13 -4 26 -10 29 -5 3 -10 14 -10 24
0 30 -39 33 -66 6 l-24 -24 21 -26 c16 -18 28 -23 46 -19 17 5 23 2 23 -10 0
-9 -6 -19 -14 -22 -20 -8 -31 -61 -16 -78 8 -11 8 -15 -2 -19 -10 -3 -8 -8 5
-19 17 -13 17 -15 3 -27 -11 -9 -16 -30 -16 -62 0 -46 12 -65 23 -36 3 9 9 9
23 1 11 -6 41 -10 68 -8 l48 3 -37 -36 c-21 -21 -34 -41 -31 -50 3 -8 2 -12
-3 -8 -5 3 -12 -1 -14 -7 -4 -10 -8 -9 -17 2 -9 11 -13 12 -17 2 -3 -9 -12 -7
-30 8 -14 11 -39 20 -54 20 -30 0 -52 17 -80 60 -13 20 -23 24 -54 22 -47 -3
-72 -16 -80 -42 -8 -25 -25 -16 -25 13 0 41 -27 67 -71 67 -21 0 -39 -4 -39
-10 0 -5 -7 -10 -15 -10 -8 0 -15 9 -15 20 0 15 -7 20 -29 20 -17 0 -33 5 -36
10 -3 6 -13 10 -21 10 -10 0 -14 -12 -14 -40 0 -26 -5 -43 -14 -46 -12 -5 -11
-9 5 -25 10 -10 19 -23 19 -28 0 -21 -48 -60 -81 -66 -25 -5 -41 -16 -53 -36
-10 -17 -33 -37 -51 -46 -32 -15 -35 -15 -64 8 -16 13 -30 29 -30 35 -1 18
-30 25 -52 13 -12 -6 -37 -8 -60 -4 -22 4 -52 2 -67 -3 -15 -6 -53 -16 -84
-22 -67 -13 -90 -32 -86 -69 3 -23 0 -26 -24 -24 -16 1 -28 -2 -28 -8 0 -5 -9
-9 -20 -9 -21 0 -27 -19 -11 -35 13 -14 -10 -105 -27 -105 -7 0 -31 10 -52 23
l-40 22 -49 -27 c-27 -16 -55 -28 -63 -28 -8 0 -23 -9 -33 -20 -10 -11 -23
-20 -30 -20 -18 0 -38 -46 -33 -74 5 -23 2 -26 -25 -26 -16 0 -51 8 -77 17
-42 15 -50 15 -66 3 -11 -10 -34 -14 -64 -12 -40 3 -50 0 -63 -18 -15 -22 -16
-22 -46 -4 -17 10 -31 22 -31 26 0 14 -34 7 -65 -13 -68 -43 -73 -44 -95 -19
-11 13 -20 29 -20 37 0 7 -13 37 -29 66 -31 56 -57 156 -67 259 -3 35 -15 108
-26 163 -11 55 -28 143 -37 195 -10 52 -23 113 -29 135 -25 91 -62 386 -62
488 0 23 -5 48 -11 54 -5 5 -10 30 -11 54 0 24 -6 97 -13 163 -10 99 -10 128
2 165 15 52 11 152 -12 271 -8 41 -16 95 -19 120 -2 25 -9 99 -16 165 -6 66
-18 170 -25 230 -8 61 -17 133 -21 160 -4 36 -1 62 10 89 9 21 16 46 16 55 0
9 14 45 30 80 17 35 35 85 41 110 11 52 43 126 59 136 6 4 13 -7 16 -24 4 -17
11 -31 16 -31 5 0 6 56 2 133 -6 113 -4 146 15 229 11 54 21 118 21 142 0 55
65 311 162 641 16 55 38 132 48 170 36 135 71 261 96 345 14 47 27 92 29 100
2 8 10 40 19 70 8 30 24 87 35 125 50 183 55 200 126 430 21 66 41 128 46 137
5 9 16 52 25 95 8 42 22 90 30 105 8 15 14 32 14 38 0 7 6 26 14 43 22 50 29
70 33 97 2 14 10 38 17 55 7 16 18 42 24 58 7 15 16 27 22 27 5 0 10 6 10 13
0 17 21 38 35 34 5 -2 16 -15 22 -29z m143 12 c0 -9 -31 -30 -44 -30 -12 0 -6
28 7 33 20 9 37 8 37 -3z m53 -27 c-27 -5 -30 -18 -6 -27 12 -5 13 -10 5 -18
-9 -9 -17 -6 -32 12 -28 33 -25 40 18 39 23 -1 28 -3 15 -6z m-12153 -7 c0 -2
-7 -9 -15 -16 -12 -10 -15 -10 -15 4 0 9 7 16 15 16 8 0 15 -2 15 -4z m12180
-96 c0 -11 -4 -20 -10 -20 -5 0 -10 9 -10 20 0 11 5 20 10 20 6 0 10 -9 10
-20z m-12072 -19 c7 -9 19 -24 27 -34 19 -22 19 -23 -1 -31 -8 -3 -29 1 -45 9
-16 9 -33 13 -38 11 -5 -3 -20 3 -34 14 -14 11 -30 20 -36 20 -6 0 -11 9 -11
20 0 18 5 19 63 14 40 -4 67 -12 75 -23z m502 -67 c0 -8 -5 -12 -10 -9 -6 4
-8 11 -5 16 9 14 15 11 15 -7z m-954 -12 c6 -4 13 -15 17 -24 5 -15 1 -18 -23
-18 -22 0 -30 5 -30 18 0 29 15 39 36 24z m577 -28 c4 -23 2 -25 -22 -19 -33
8 -35 11 -28 30 10 25 44 18 50 -11z m37 6 c0 -11 -4 -20 -10 -20 -5 0 -10 9
-10 20 0 11 5 20 10 20 6 0 10 -9 10 -20z m-442 -32 c2 -9 -5 -18 -14 -22 -21
-8 -33 2 -15 13 8 5 10 14 6 21 -5 8 -3 11 6 8 8 -3 15 -12 17 -20z m622 -138
c0 -5 -7 -10 -16 -10 -8 0 -12 5 -9 10 3 6 10 10 16 10 5 0 9 -4 9 -10z m380
-54 c0 -2 3 -11 6 -20 5 -13 -1 -16 -25 -16 -33 0 -39 8 -19 28 11 11 38 17
38 8z m-430 -52 c0 -26 -20 -66 -32 -62 -18 6 -32 69 -18 78 17 11 50 0 50
-16z m664 -227 c31 -45 32 -57 7 -57 -30 0 -55 29 -40 46 9 11 8 14 -5 14 -10
0 -16 9 -16 25 0 34 19 24 54 -28z m444 -408 c-2 -6 -8 -10 -13 -10 -5 0 -11
4 -13 10 -2 6 4 11 13 11 9 0 15 -5 13 -11z m-44 -54 c3 -9 0 -15 -9 -15 -8 0
-15 7 -15 15 0 8 4 15 9 15 5 0 11 -7 15 -15z m-56 -112 c-2 -12 -12 -18 -28
-18 -16 0 -26 6 -28 18 -3 13 3 17 28 17 25 0 31 -4 28 -17z m182 2 c0 -8 -4
-15 -10 -15 -5 0 -10 7 -10 15 0 8 5 15 10 15 6 0 10 -7 10 -15z m11257 -7
c-3 -8 -6 -5 -6 6 -1 11 2 17 5 13 3 -3 4 -12 1 -19z m-11157 -44 c0 -8 -4
-14 -9 -14 -11 0 -22 26 -14 34 9 9 23 -3 23 -20z m11368 -156 c2 -13 -3 -18
-17 -18 -12 0 -21 4 -21 9 0 5 -7 8 -16 7 -9 0 -19 5 -21 12 -4 10 5 13 33 10
27 -2 40 -8 42 -20z m-11328 -69 c0 -11 -4 -17 -10 -14 -5 3 -10 13 -10 21 0
8 5 14 10 14 6 0 10 -9 10 -21z m200 -10 c0 -5 -4 -9 -10 -9 -5 0 -10 7 -10
16 0 8 5 12 10 9 6 -3 10 -10 10 -16z m3 -135 c8 -8 -3 -34 -14 -34 -5 0 -9 9
-9 20 0 19 11 26 23 14z m-29 -59 c-4 -8 -8 -15 -10 -15 -2 0 -4 7 -4 15 0 8
4 15 10 15 5 0 7 -7 4 -15z m142 -142 c-11 -11 -19 6 -11 24 8 17 8 17 12 0 3
-10 2 -21 -1 -24z m11128 -14 c-8 -14 -44 -10 -44 5 0 9 8 12 25 8 14 -2 22
-8 19 -13z m-69 -194 l30 -24 -27 -26 c-21 -19 -34 -24 -53 -19 -14 3 -25 12
-25 19 0 7 -5 15 -12 17 -16 6 22 57 42 58 8 0 29 -11 45 -25z m-145 -75 c0
-11 -7 -20 -15 -20 -8 0 -15 9 -15 20 0 11 7 20 15 20 8 0 15 -9 15 -20z
m-10690 -30 c0 -5 -4 -10 -10 -10 -5 0 -10 5 -10 10 0 6 5 10 10 10 6 0 10 -4
10 -10z m10760 -67 c8 -7 -24 -23 -47 -23 -24 0 -38 14 -28 31 6 9 62 4 75 -8z
m-20 -43 c0 -5 16 -10 36 -10 19 0 42 -7 50 -15 9 -8 12 -15 7 -16 -26 -3 -89
4 -93 10 -3 5 -18 11 -35 16 -27 7 -28 8 -10 15 28 12 45 12 45 0z m150 -155
c-12 -15 -30 -12 -30 6 0 5 10 9 21 9 18 0 19 -2 9 -15z m-10874 -112 c-11
-11 -19 6 -11 24 8 17 8 17 12 0 3 -10 2 -21 -1 -24z m10804 -34 c0 -11 -4
-18 -10 -14 -5 3 -7 12 -3 20 7 21 13 19 13 -6z m20 -39 c0 -5 -4 -10 -10 -10
-5 0 -10 5 -10 10 0 6 5 10 10 10 6 0 10 -4 10 -10z m151 -63 c-8 -8 -11 -8
-11 1 0 7 -8 12 -17 12 -15 0 -14 2 3 14 16 13 20 12 28 -1 5 -9 4 -19 -3 -26z
m-10891 -82 c0 -9 -6 -12 -15 -9 -8 4 -12 10 -9 15 8 14 24 10 24 -6z m10983
-242 c6 -16 18 -33 25 -38 11 -9 8 -16 -13 -39 -24 -26 -28 -27 -42 -13 -10
10 -17 36 -18 67 -2 43 1 50 17 50 11 0 24 -12 31 -27z m570 -50 c-7 -2 -19
-2 -25 0 -7 3 -2 5 12 5 14 0 19 -2 13 -5z m325 -85 c2 -13 -3 -18 -17 -18
-12 0 -21 5 -21 10 0 6 -7 10 -16 10 -8 0 -12 5 -9 11 11 16 59 6 63 -13z
m-11608 -23 c0 -2 -7 -5 -15 -9 -9 -3 -15 0 -15 9 0 9 6 12 15 9 8 -4 15 -7
15 -9z m11440 -145 c0 -6 -7 -13 -15 -16 -8 -4 -15 -12 -15 -20 0 -16 -16 -19
-25 -4 -3 6 1 13 9 16 9 3 16 12 16 20 0 8 7 14 15 14 8 0 15 -5 15 -10z
m-11385 -69 c-3 -6 -11 -11 -16 -11 -5 0 -4 6 3 14 14 16 24 13 13 -3z m11009
10 c11 -17 -23 -34 -51 -26 -24 7 -25 9 -8 13 11 2 24 8 30 13 12 11 22 11 29
0z m-10454 -166 c0 -8 -7 -15 -15 -15 -16 0 -20 12 -8 23 11 12 23 8 23 -8z
m10175 5 c3 -5 1 -10 -4 -10 -6 0 -11 5 -11 10 0 6 2 10 4 10 3 0 8 -4 11 -10z
m-9270 -20 c-3 -5 -10 -10 -16 -10 -5 0 -9 5 -9 10 0 6 7 10 16 10 8 0 12 -4
9 -10z m-355 -15 c-7 -8 -20 -15 -30 -15 -10 0 -23 7 -30 15 -11 13 -7 15 30
15 37 0 41 -2 30 -15z m-713 -51 c-3 -3 -12 -4 -19 -1 -8 3 -5 6 6 6 11 1 17
-2 13 -5z m1086 -54 c16 0 -14 -20 -30 -20 -7 0 -13 7 -13 16 0 11 5 14 16 10
9 -3 21 -6 27 -6z m731 -29 c4 -7 -34 -31 -49 -31 -14 0 -2 29 13 33 28 8 31
7 36 -2z m-769 -15 c8 -7 12 -16 9 -19 -10 -9 -34 4 -34 19 0 18 8 18 25 0z
m445 4 c0 -13 -11 -13 -30 0 -12 8 -11 10 8 10 12 0 22 -4 22 -10z m80 0 c0
-5 -4 -10 -10 -10 -5 0 -10 5 -10 10 0 6 5 10 10 10 6 0 10 -4 10 -10z m167 4
c-3 -3 -12 -4 -19 -1 -8 3 -5 6 6 6 11 1 17 -2 13 -5z m8670 -16 c-3 -8 -6 -5
-6 6 -1 11 2 17 5 13 3 -3 4 -12 1 -19z m-9758 -9 c-22 -13 -31 -11 -17 5 7 8
17 12 22 9 4 -3 2 -9 -5 -14z m3100 -11 c12 -20 13 -34 5 -55 -8 -23 -16 -29
-49 -31 -45 -4 -65 14 -65 59 0 58 81 78 109 27z m6634 15 c-7 -2 -19 -2 -25
0 -7 3 -2 5 12 5 14 0 19 -2 13 -5z m-8303 -123 c0 -5 -10 -10 -22 -10 -19 0
-20 2 -8 10 19 13 30 13 30 0z m8334 -29 c20 -22 14 -56 -11 -65 -9 -4 -16 -5
-17 -4 -1 2 -10 13 -20 26 -18 21 -18 23 -1 42 22 25 28 25 49 1z m-8334 -56
c0 -29 -6 -31 -26 -11 -20 20 -17 36 6 36 15 0 20 -7 20 -25z m50 -74 c0 -5
-6 -12 -12 -14 -8 -4 -7 -6 4 -6 9 -1 24 6 33 15 12 12 19 14 27 6 9 -9 4 -20
-18 -42 -35 -35 -52 -38 -56 -7 -2 12 -10 23 -18 23 -8 1 -19 2 -23 3 -4 0 -2
8 5 16 14 16 58 20 58 6z m8375 -20 c3 -8 0 -20 -7 -28 -11 -11 -18 -8 -39 16
l-25 29 33 -1 c19 -1 35 -7 38 -16z m-10 -61 c3 -5 1 -10 -4 -10 -6 0 -11 5
-11 10 0 6 2 10 4 10 3 0 8 -4 11 -10z m-8415 -20 c0 -5 -4 -10 -10 -10 -5 0
-10 5 -10 10 0 6 5 10 10 10 6 0 10 -4 10 -10z m270 -31 c0 -19 -27 -27 -50
-16 -34 17 -35 34 -3 45 22 8 31 6 41 -6 6 -9 12 -19 12 -23z m-160 -29 c0 -5
11 -10 25 -10 14 0 25 -4 25 -10 0 -5 -24 -10 -54 -10 -30 0 -58 5 -61 10 -3
6 3 10 14 10 12 0 21 5 21 10 0 6 7 10 15 10 8 0 15 -4 15 -10z m2012 -102
c-9 -9 -15 -9 -24 0 -9 9 -7 12 12 12 19 0 21 -3 12 -12z m-1642 -78 c0 -5 -7
-7 -15 -4 -8 4 -15 8 -15 10 0 2 7 4 15 4 8 0 15 -4 15 -10z m8240 -80 c0 -5
-2 -10 -4 -10 -3 0 -8 5 -11 10 -3 6 -1 10 4 10 6 0 11 -4 11 -10z m-8440 -20
c0 -5 -4 -10 -10 -10 -5 0 -10 5 -10 10 0 6 5 10 10 10 6 0 10 -4 10 -10z
m983 3 c-13 -2 -33 -2 -45 0 -13 2 -3 4 22 4 25 0 35 -2 23 -4z m-575 -15 c-5
-16 -48 -24 -48 -10 0 11 17 20 38 21 8 1 12 -5 10 -11z m1465 -35 c-7 -2 -19
-2 -25 0 -7 3 -2 5 12 5 14 0 19 -2 13 -5z m-1473 -23 c-13 -24 -26 -25 -46
-6 -21 22 -18 26 21 26 33 0 35 -2 25 -20z m604 -6 c4 -15 5 -29 1 -32 -3 -3
-5 0 -5 6 0 7 -7 12 -15 12 -8 0 -15 9 -15 20 0 29 27 24 34 -6z m7536 -58 c0
-3 -4 -8 -10 -11 -5 -3 -10 -1 -10 4 0 6 5 11 10 11 6 0 10 -2 10 -4z m-56
-61 c4 -10 -1 -15 -14 -15 -20 0 -26 11 -13 23 10 11 20 8 27 -8z m-5914 -55
c0 -5 -4 -10 -10 -10 -5 0 -10 5 -10 10 0 6 5 10 10 10 6 0 10 -4 10 -10z
m270 -149 c0 -10 -8 -21 -17 -24 -10 -4 -28 -14 -40 -23 -22 -16 -23 -15 -23
5 0 11 -5 21 -11 21 -23 0 -1 25 27 31 52 12 64 10 64 -10z m106 -136 c12 -37
5 -45 -37 -45 -23 0 -43 41 -25 52 16 11 28 10 21 -1 -3 -5 -1 -12 5 -16 6 -4
10 5 10 19 0 37 13 32 26 -9z m94 -266 c0 -5 -11 -9 -25 -9 -33 0 -33 15 0 16
14 1 25 -2 25 -7z m4960 -189 c-6 -11 -16 -20 -23 -20 -7 0 -4 -7 6 -15 18
-13 18 -14 -2 -25 -19 -10 -21 -8 -21 20 0 20 5 30 15 30 8 0 15 7 15 15 0 8
5 15 10 15 7 0 7 -6 0 -20z m-4727 -14 c7 -17 -11 -36 -35 -36 -21 0 -24 20
-6 38 16 16 35 15 41 -2z m4287 -111 c0 -8 -7 -15 -15 -15 -26 0 -18 20 13 29
1 1 2 -6 2 -14z m41 -59 c4 -5 22 -1 40 8 18 9 33 15 34 14 1 -2 5 -24 7 -50
l6 -48 -34 0 c-19 0 -34 5 -34 10 0 6 -7 10 -15 10 -8 0 -29 15 -45 33 -26 29
-27 33 -13 44 16 13 36 5 54 -21z m-4231 -11 c-12 -15 -30 -12 -30 6 0 5 10 9
21 9 18 0 19 -2 9 -15z m4660 -60 c0 -8 -4 -15 -10 -15 -5 0 -10 7 -10 15 0 8
5 15 10 15 6 0 10 -7 10 -15z m-4253 -11 c-3 -3 -12 -4 -19 -1 -8 3 -5 6 6 6
11 1 17 -2 13 -5z m4293 -24 c0 -5 -7 -10 -15 -10 -8 0 -15 5 -15 10 0 6 7 10
15 10 8 0 15 -4 15 -10z m-1100 -89 c0 -5 -6 -14 -14 -20 -16 -13 -32 2 -21
19 8 12 35 13 35 1z m890 0 c0 -5 3 -16 6 -25 4 -10 1 -16 -7 -16 -8 0 -14 11
-14 25 0 14 3 25 8 25 4 0 7 -4 7 -9z m-685 -45 c12 -14 39 -27 63 -31 55 -9
63 -32 21 -67 -18 -16 -36 -28 -39 -28 -3 0 -6 14 -7 31 -3 37 -33 62 -77 63
-34 1 -53 36 -19 36 15 0 16 2 3 10 -12 8 -10 10 9 10 13 0 34 -11 46 -24z"/>
<path d="M9346 10501 c-4 -7 -5 -15 -2 -18 9 -9 19 4 14 18 -4 11 -6 11 -12 0z"/>
<path d="M24480 8690 c0 -5 5 -10 10 -10 6 0 10 5 10 10 0 6 -4 10 -10 10 -5
0 -10 -4 -10 -10z"/>
<path d="M24711 8394 c0 -11 3 -14 6 -6 3 7 2 16 -1 19 -3 4 -6 -2 -5 -13z"/>
<path d="M25156 7544 c-3 -9 -6 -34 -6 -57 -1 -39 -2 -41 -15 -23 -13 18 -15
18 -15 2 0 -31 42 -65 73 -59 27 5 37 28 15 35 -7 3 -5 13 7 31 16 26 16 27
-1 34 -17 6 -17 7 0 13 17 6 17 7 2 23 -22 21 -52 22 -60 1z"/>
<path d="M25340 7031 c0 -6 5 -13 10 -16 6 -3 10 1 10 9 0 9 -4 16 -10 16 -5
0 -10 -4 -10 -9z"/>
<path d="M25310 6970 c0 -5 7 -10 16 -10 8 0 12 5 9 10 -3 6 -10 10 -16 10 -5
0 -9 -4 -9 -10z"/>
<path d="M25360 6971 c0 -5 7 -12 16 -15 14 -5 15 -4 4 9 -14 17 -20 19 -20 6z"/>
<path d="M25185 6921 c-3 -5 -1 -12 5 -16 5 -3 10 1 10 9 0 18 -6 21 -15 7z"/>
<path d="M25184 6843 c-21 -4 -38 -36 -26 -47 11 -12 42 -6 42 8 0 7 9 16 21
19 12 3 18 10 14 16 -6 11 -13 12 -51 4z"/>
<path d="M25345 6550 c3 -5 8 -10 11 -10 2 0 4 5 4 10 0 6 -5 10 -11 10 -5 0
-7 -4 -4 -10z"/>
<path d="M25180 6461 c0 -6 5 -13 10 -16 6 -3 10 1 10 9 0 9 -4 16 -10 16 -5
0 -10 -4 -10 -9z"/>
<path d="M25212 6438 c-21 -21 -14 -38 16 -38 15 0 33 -5 40 -12 9 -9 12 -9
12 0 0 7 -4 12 -8 12 -5 0 -14 11 -20 25 -13 28 -22 31 -40 13z"/>
<path d="M25212 6349 c2 -7 10 -15 17 -17 8 -3 12 1 9 9 -2 7 -10 15 -17 17
-8 3 -12 -1 -9 -9z"/>
<path d="M25325 6330 c-3 -5 -1 -10 4 -10 6 0 11 5 11 10 0 6 -2 10 -4 10 -3
0 -8 -4 -11 -10z"/>
<path d="M25410 6156 c0 -2 7 -9 15 -16 12 -10 15 -10 15 4 0 9 -7 16 -15 16
-8 0 -15 -2 -15 -4z"/>
<path d="M25695 5640 c-3 -5 -1 -10 4 -10 6 0 11 5 11 10 0 6 -2 10 -4 10 -3
0 -8 -4 -11 -10z"/>
<path d="M25654 5511 c4 -6 12 -9 17 -6 5 4 9 -1 9 -10 0 -11 5 -15 16 -11 8
3 29 -1 45 -9 29 -16 49 -13 49 6 0 5 -7 9 -15 9 -8 0 -15 4 -15 8 0 5 -15 9
-32 9 -18 0 -44 4 -57 8 -17 6 -22 5 -17 -4z"/>
<path d="M25760 5425 c0 -8 2 -15 4 -15 2 0 6 7 10 15 3 8 1 15 -4 15 -6 0
-10 -7 -10 -15z"/>
<path d="M25895 4656 c-36 -29 -31 -60 11 -64 37 -4 59 18 50 52 -8 34 -28 38
-61 12z"/>
<path d="M25596 4183 c-7 -16 9 -33 31 -33 15 0 35 35 26 44 -13 12 -51 6 -57
-11z"/>
<path d="M26180 4125 c0 -16 -1 -16 -39 -20 -14 -1 -30 -10 -37 -20 -7 -9 -17
-14 -23 -10 -6 3 -11 0 -11 -8 0 -29 -27 -40 -57 -23 -76 41 -74 41 -84 25 -5
-8 -9 -9 -9 -4 -2 28 -30 -34 -30 -66 0 -28 6 -40 25 -53 31 -20 86 -13 111
15 9 10 20 16 24 14 4 -3 11 6 14 20 5 19 13 25 34 25 19 0 33 9 47 30 20 30
35 39 35 20 0 -5 9 -10 20 -10 11 0 20 6 20 13 0 8 4 7 10 -3 8 -12 10 -11 10
8 0 12 -4 22 -9 22 -5 0 -11 9 -14 20 -6 23 -37 27 -37 5z"/>
<path d="M24784 3895 c-9 -22 22 -53 37 -38 15 15 7 47 -14 51 -9 2 -20 -4
-23 -13z"/>
<path d="M25635 3890 c-4 -6 -3 -16 3 -22 6 -6 12 -6 17 2 4 6 3 16 -3 22 -6
6 -12 6 -17 -2z"/>
<path d="M25695 3683 c-50 -12 -58 -45 -22 -86 29 -35 75 -36 99 -3 22 30 13
63 -23 81 -15 8 -29 14 -31 14 -2 -1 -12 -4 -23 -6z"/>
<path d="M26035 3620 c-4 -6 5 -10 19 -10 14 0 26 5 26 10 0 6 -9 10 -19 10
-11 0 -23 -4 -26 -10z"/>
<path d="M24539 3613 c-13 -3 -39 -42 -39 -58 0 -3 11 -12 25 -21 22 -14 30
-15 50 -4 49 26 19 95 -36 83z"/>
<path d="M24764 3565 c-9 -23 15 -73 39 -81 14 -4 25 -1 34 12 18 24 16 37 -7
62 -24 25 -58 29 -66 7z"/>
<path d="M23966 3478 c-14 -20 -14 -24 -1 -37 11 -12 19 -12 40 -3 28 13 34
47 9 56 -25 10 -32 7 -48 -16z"/>
<path d="M24235 3480 c-3 -6 1 -13 10 -16 19 -8 30 0 20 15 -8 14 -22 14 -30
1z"/>
<path d="M25695 3480 c-4 -6 -11 -8 -16 -4 -11 7 -8 -34 4 -53 9 -14 45 -17
71 -7 26 10 20 53 -10 64 -32 13 -41 13 -49 0z"/>
<path d="M24580 3430 c0 -13 5 -20 13 -17 6 2 12 10 12 17 0 7 -6 15 -12 18
-8 2 -13 -5 -13 -18z"/>
<path d="M24783 3443 c-18 -7 -16 -23 2 -23 8 0 15 7 15 15 0 8 -1 15 -2 14
-2 0 -9 -3 -15 -6z"/>
<path d="M24833 3374 c-18 -9 -33 -22 -33 -29 0 -7 -7 -15 -15 -19 -23 -9 -18
-23 12 -31 21 -5 24 -8 12 -16 -10 -6 -3 -9 24 -9 28 0 44 6 58 23 24 29 25
73 0 87 -24 12 -19 13 -58 -6z"/>
<path d="M24030 3351 c0 -32 23 -47 54 -35 35 13 11 64 -31 64 -19 0 -23 -5
-23 -29z"/>
<path d="M24546 3345 c-20 -30 -14 -45 20 -45 19 0 24 5 24 24 0 13 -6 29 -14
35 -11 9 -17 6 -30 -14z"/>
<path d="M24342 3114 c-6 -7 -29 -15 -52 -19 -45 -8 -77 -48 -59 -76 5 -8 9
-11 9 -8 0 4 19 3 43 -2 52 -9 87 -2 87 19 0 8 6 23 14 31 7 9 17 26 20 37 6
18 2 22 -22 26 -16 2 -34 -1 -40 -8z"/>
<path d="M24042 3005 c-28 -36 -28 -41 8 -76 23 -24 34 -28 57 -23 40 9 56 28
55 65 -1 40 -10 49 -59 56 -35 5 -43 2 -61 -22z"/>
<path d="M23810 2950 c0 -5 7 -10 15 -10 8 0 15 5 15 10 0 6 -7 10 -15 10 -8
0 -15 -4 -15 -10z"/>
<path d="M23940 2896 c0 -9 5 -16 10 -16 6 0 10 4 10 9 0 6 -4 13 -10 16 -5 3
-10 -1 -10 -9z"/>
<path d="M16038 21513 c7 -3 16 -2 19 1 4 3 -2 6 -13 5 -11 0 -14 -3 -6 -6z"/>
<path d="M17175 21050 c-3 -5 1 -10 9 -10 9 0 16 5 16 10 0 6 -4 10 -9 10 -6
0 -13 -4 -16 -10z"/>
<path d="M17025 20960 c3 -5 8 -10 11 -10 2 0 4 5 4 10 0 6 -5 10 -11 10 -5 0
-7 -4 -4 -10z"/>
<path d="M17184 20849 c-3 -6 -1 -16 5 -22 8 -8 11 -5 11 11 0 24 -5 28 -16
11z"/>
<path d="M17263 20734 c-9 -24 14 -33 58 -21 55 14 51 37 -6 37 -33 0 -47 -5
-52 -16z"/>
<path d="M17150 20600 c0 -5 5 -10 10 -10 6 0 10 5 10 10 0 6 -4 10 -10 10 -5
0 -10 -4 -10 -10z"/>
<path d="M17487 20494 c-3 -3 -3 -12 0 -20 6 -16 33 -19 33 -4 0 6 10 10 23
11 21 1 21 1 -3 9 -32 10 -45 11 -53 4z"/>
<path d="M17403 20423 c-70 -7 -53 -52 20 -53 9 0 17 7 17 15 0 8 5 15 10 15
6 0 10 7 10 15 0 8 -3 14 -7 13 -5 -1 -27 -3 -50 -5z"/>
<path d="M17230 20222 c0 -16 48 -62 65 -62 3 0 -7 18 -21 40 -29 43 -44 51
-44 22z"/>
<path d="M18282 17619 c2 -6 8 -10 13 -10 5 0 11 4 13 10 2 6 -4 11 -13 11 -9
0 -15 -5 -13 -11z"/>
<path d="M20461 13441 c-11 -7 -11 -10 2 -17 8 -5 16 -17 18 -26 3 -13 8 -15
19 -8 13 8 13 11 -1 22 -9 7 -18 18 -20 25 -3 8 -9 9 -18 4z"/>
<path d="M20990 12680 c0 -33 3 -40 20 -40 17 0 20 7 20 40 0 33 -3 40 -20 40
-17 0 -20 -7 -20 -40z"/>
<path d="M20945 12621 c-11 -18 5 -31 36 -31 24 0 30 4 27 18 -4 19 -52 29
-63 13z"/>
<path d="M21200 12240 c0 -6 7 -10 15 -10 8 0 15 2 15 4 0 2 -7 6 -15 10 -8 3
-15 1 -15 -4z"/>
<path d="M21734 11477 c-10 -6 -34 -25 -52 -43 -35 -35 -35 -59 -1 -49 12 4
34 -3 56 -16 20 -13 33 -17 29 -11 -5 8 3 16 23 23 40 14 39 24 -1 39 l-33 11
34 15 c38 16 38 17 -5 31 -21 8 -36 8 -50 0z"/>
<path d="M21950 11320 c0 -5 5 -10 10 -10 6 0 10 5 10 10 0 6 -4 10 -10 10 -5
0 -10 -4 -10 -10z"/>
<path d="M21796 11232 c-3 -5 13 -16 35 -25 l41 -16 -15 22 c-15 23 -51 34
-61 19z"/>
<path d="M8604 11075 c-3 -8 -3 -19 1 -25 3 -5 -1 -10 -9 -10 -9 0 -16 -9 -16
-20 0 -15 -7 -20 -27 -20 -48 0 -73 -11 -73 -31 0 -17 8 -19 60 -19 47 0 60 3
60 15 0 9 7 18 15 21 8 4 15 18 16 33 0 14 3 20 6 14 2 -7 11 -13 18 -13 18 0
38 37 31 56 -7 19 -75 19 -82 -1z"/>
<path d="M9220 11055 c0 -8 7 -15 15 -15 8 0 15 7 15 15 0 8 -7 15 -15 15 -8
0 -15 -7 -15 -15z"/>
<path d="M8240 11024 c0 -14 3 -14 15 -4 8 7 15 14 15 16 0 2 -7 4 -15 4 -8 0
-15 -7 -15 -16z"/>
<path d="M8838 10963 c6 -2 18 -2 25 0 6 3 1 5 -13 5 -14 0 -19 -2 -12 -5z"/>
<path d="M8882 10894 c2 -9 11 -22 21 -28 20 -13 50 2 55 28 3 13 -5 16 -38
16 -33 0 -41 -3 -38 -16z"/>
<path d="M8358 10868 c9 -9 15 -9 24 0 9 9 7 12 -12 12 -19 0 -21 -3 -12 -12z"/>
<path d="M8971 10856 c-17 -20 34 -53 55 -35 14 11 13 15 -8 31 -28 21 -32 22
-47 4z"/>
<path d="M9740 10816 c0 -10 9 -16 21 -16 24 0 21 23 -4 28 -10 2 -17 -3 -17
-12z"/>
<path d="M9165 10780 c-17 -19 -17 -21 0 -40 17 -19 17 -20 -1 -20 -17 0 -17
-1 -2 -16 15 -16 19 -16 57 0 23 9 51 16 64 16 20 1 19 3 -13 30 -19 16 -43
30 -52 30 -10 0 -18 5 -18 10 0 16 -15 12 -35 -10z"/>
<path d="M9403 10763 c-9 -23 7 -83 22 -83 8 0 15 8 15 18 0 10 5 23 11 29 6
6 9 19 7 29 -4 21 -48 27 -55 7z"/>
<path d="M9575 10760 c-4 -7 -3 -16 3 -22 14 -14 45 -2 40 15 -6 16 -34 21
-43 7z"/>
<path d="M10716 10754 c-3 -8 1 -14 9 -14 20 0 28 17 11 23 -8 3 -17 -1 -20
-9z"/>
<path d="M23048 10753 c7 -3 16 -2 19 1 4 3 -2 6 -13 5 -11 0 -14 -3 -6 -6z"/>
<path d="M9580 10710 c0 -5 5 -10 10 -10 6 0 10 5 10 10 0 6 -4 10 -10 10 -5
0 -10 -4 -10 -10z"/>
<path d="M9886 10681 c-9 -14 4 -41 19 -41 8 0 15 -8 18 -17 3 -15 6 -13 17 9
7 15 10 34 7 42 -7 17 -52 22 -61 7z"/>
<path d="M10365 10650 c-3 -5 3 -10 14 -10 12 0 21 5 21 10 0 6 -6 10 -14 10
-8 0 -18 -4 -21 -10z"/>
<path d="M10583 10654 c-12 -6 32 -64 49 -64 17 0 8 50 -11 60 -11 5 -21 10
-23 9 -2 0 -8 -3 -15 -5z"/>
<path d="M10640 10650 c0 -5 9 -10 21 -10 11 0 17 5 14 10 -3 6 -13 10 -21 10
-8 0 -14 -4 -14 -10z"/>
<path d="M9360 10630 c0 -5 4 -10 9 -10 6 0 13 5 16 10 3 6 -1 10 -9 10 -9 0
-16 -4 -16 -10z"/>
<path d="M9665 10570 c-3 -5 -1 -10 4 -10 6 0 11 5 11 10 0 6 -2 10 -4 10 -3
0 -8 -4 -11 -10z"/>
<path d="M10065 10550 c3 -5 17 -10 31 -10 13 0 24 5 24 10 0 6 -14 10 -31 10
-17 0 -28 -4 -24 -10z"/>
<path d="M10617 10546 c-6 -15 1 -26 15 -26 4 0 8 9 8 20 0 23 -15 27 -23 6z"/>
<path d="M23345 10289 c-10 -15 0 -21 27 -17 l23 3 -22 13 c-15 8 -24 9 -28 1z"/>
<path d="M23568 10133 c7 -3 16 -2 19 1 4 3 -2 6 -13 5 -11 0 -14 -3 -6 -6z"/>
<path d="M23528 10113 c7 -3 16 -2 19 1 4 3 -2 6 -13 5 -11 0 -14 -3 -6 -6z"/>
<path d="M23695 9898 c-4 -10 -11 -15 -16 -12 -5 3 -6 -2 -3 -10 6 -16 31 -29
37 -18 2 4 1 18 -3 32 -6 21 -8 23 -15 8z"/>
<path d="M12160 9105 c0 -8 5 -15 10 -15 6 0 10 7 10 15 0 8 -4 15 -10 15 -5
0 -10 -7 -10 -15z"/>
<path d="M12976 9087 c-16 -12 -16 -14 3 -31 21 -19 21 -19 42 0 19 17 19 19
3 31 -10 7 -21 13 -24 13 -3 0 -14 -6 -24 -13z"/>
<path d="M11970 9030 c0 -5 9 -10 20 -10 11 0 20 5 20 10 0 6 -9 10 -20 10
-11 0 -20 -4 -20 -10z"/>
<path d="M13121 8971 c-12 -8 -9 -11 11 -16 29 -8 52 1 43 16 -8 12 -36 11
-54 0z"/>
<path d="M12240 8915 c0 -10 7 -15 18 -13 21 4 19 22 -2 26 -10 2 -16 -3 -16
-13z"/>
<path d="M13280 8890 c0 -5 -8 -10 -17 -10 -15 0 -13 -4 7 -20 28 -22 60 -26
78 -8 18 18 15 28 -8 28 -11 0 -20 5 -20 10 0 6 -9 10 -20 10 -11 0 -20 -4
-20 -10z"/>
<path d="M13138 8883 c6 -2 18 -2 25 0 6 3 1 5 -13 5 -14 0 -19 -2 -12 -5z"/>
<path d="M13360 8830 c0 -5 18 -10 40 -10 22 0 40 5 40 10 0 6 -18 10 -40 10
-22 0 -40 -4 -40 -10z"/>
<path d="M13410 8801 l-35 -6 37 -12 c25 -7 40 -8 44 -1 10 16 -9 24 -46 19z"/>
<path d="M13795 8390 c-3 -5 -1 -10 4 -10 6 0 11 5 11 10 0 6 -2 10 -4 10 -3
0 -8 -4 -11 -10z"/>
<path d="M13760 8210 c0 -5 5 -10 10 -10 6 0 10 5 10 10 0 6 -4 10 -10 10 -5
0 -10 -4 -10 -10z"/>
<path d="M14205 8070 c-9 -15 4 -30 27 -30 14 0 18 5 14 16 -3 9 -6 18 -6 20
0 8 -29 4 -35 -6z"/>
<path d="M14240 7811 c0 -11 39 -25 47 -18 3 3 2 10 -2 16 -8 13 -45 15 -45 2z"/>
<path d="M14268 7673 c7 -3 16 -2 19 1 4 3 -2 6 -13 5 -11 0 -14 -3 -6 -6z"/>
<path d="M14280 7512 c0 -22 26 -41 48 -36 27 8 28 20 3 34 -23 12 -51 13 -51
2z"/>
<path d="M14663 6896 c4 -9 1 -16 -5 -16 -8 0 -6 -7 5 -17 15 -16 18 -15 37 2
22 20 18 29 -19 40 -20 6 -23 4 -18 -9z"/>
<path d="M14848 6713 c6 -2 18 -2 25 0 6 3 1 5 -13 5 -14 0 -19 -2 -12 -5z"/>
<path d="M14735 6660 c3 -5 8 -10 11 -10 2 0 4 5 4 10 0 6 -5 10 -11 10 -5 0
-7 -4 -4 -10z"/>
<path d="M14870 6655 c7 -8 17 -15 22 -15 6 0 5 7 -2 15 -7 8 -17 15 -22 15
-6 0 -5 -7 2 -15z"/>
<path d="M14960 6030 c0 -5 5 -10 10 -10 6 0 10 5 10 10 0 6 -4 10 -10 10 -5
0 -10 -4 -10 -10z"/>
<path d="M15170 5830 c0 -13 11 -13 30 0 12 8 11 10 -7 10 -13 0 -23 -4 -23
-10z"/>
<path d="M16115 5460 c-7 -12 2 -12 30 0 19 8 19 9 -2 9 -12 1 -25 -3 -28 -9z"/>
<path d="M17030 5421 c-14 -4 -24 -13 -22 -20 1 -6 -18 -26 -43 -43 -50 -36
-54 -43 -25 -58 16 -8 22 -7 32 10 8 12 24 20 40 20 18 0 28 5 28 15 0 8 -4
15 -10 15 -5 0 -10 5 -10 11 0 18 25 36 47 35 12 -1 23 4 25 9 4 13 -29 16
-62 6z"/>
<path d="M17440 5258 c0 -16 5 -28 10 -28 13 0 13 20 0 40 -8 12 -10 9 -10
-12z"/>
<path d="M17665 5222 c-13 -14 -2 -22 30 -22 19 0 35 4 35 9 0 10 -57 21 -65
13z"/>
<path d="M18140 4700 c0 -11 5 -20 10 -20 6 0 10 9 10 20 0 11 -4 20 -10 20
-5 0 -10 -9 -10 -20z"/>
<path d="M18180 4710 c0 -5 5 -10 10 -10 6 0 10 5 10 10 0 6 -4 10 -10 10 -5
0 -10 -4 -10 -10z"/>
<path d="M19521 4608 c0 -28 2 -30 9 -13 12 28 12 45 0 45 -5 0 -10 -15 -9
-32z"/>
<path d="M18416 4545 c4 -8 10 -15 14 -15 4 0 10 7 14 15 4 10 -1 15 -14 15
-13 0 -18 -5 -14 -15z"/>
<path d="M20072 4324 c-7 -8 -10 -19 -6 -26 5 -7 10 -3 16 12 10 28 7 33 -10
14z"/>
<path d="M20643 4324 c3 -4 0 -12 -7 -20 -22 -21 -7 -61 30 -83 19 -11 34 -25
34 -31 0 -19 15 -10 28 17 17 38 15 77 -5 95 -17 14 -94 35 -80 22z"/>
<path d="M20905 4120 c4 -6 11 -8 16 -5 14 9 11 15 -7 15 -8 0 -12 -5 -9 -10z"/>
<path d="M21040 3830 c0 -5 6 -10 14 -10 8 0 18 5 21 10 3 6 -3 10 -14 10 -12
0 -21 -4 -21 -10z"/>
<path d="M21333 3723 c-21 -8 -14 -48 12 -71 30 -26 31 -27 39 -4 3 9 11 25
18 35 11 15 10 20 -6 33 -20 14 -41 17 -63 7z"/>
<path d="M21285 3590 c3 -5 10 -10 16 -10 5 0 9 5 9 10 0 6 -7 10 -16 10 -8 0
-12 -4 -9 -10z"/>
<path d="M21722 3558 c-17 -17 -15 -64 4 -93 13 -19 25 -25 55 -25 l38 0 -5
53 c-3 28 -7 58 -10 65 -4 15 -66 16 -82 0z"/>
<path d="M21824 3425 c-10 -26 4 -61 32 -75 24 -13 27 -12 45 10 10 14 19 31
19 39 0 34 -84 57 -96 26z"/>
<path d="M21521 3404 c0 -11 3 -14 6 -6 3 7 2 16 -1 19 -3 4 -6 -2 -5 -13z"/>
<path d="M23095 3360 c-3 -5 0 -19 8 -30 13 -19 16 -20 31 -5 20 21 20 31 0
39 -22 8 -32 8 -39 -4z"/>
<path d="M22000 3184 c0 -8 5 -12 10 -9 6 3 10 10 10 16 0 5 -4 9 -10 9 -5 0
-10 -7 -10 -16z"/>
<path d="M22786 3161 c-3 -5 1 -12 10 -15 22 -8 25 -4 9 11 -8 7 -16 9 -19 4z"/>
<path d="M22030 3135 c0 -8 7 -15 15 -15 8 0 15 4 15 9 0 5 -7 11 -15 15 -9 3
-15 0 -15 -9z"/>
<path d="M22298 3113 c7 -3 16 -2 19 1 4 3 -2 6 -13 5 -11 0 -14 -3 -6 -6z"/>
<path d="M22929 3064 c-10 -13 -10 -17 2 -25 20 -13 34 -6 37 19 4 26 -19 30
-39 6z"/>
<path d="M22336 3032 c22 -26 34 -28 34 -7 0 8 -4 15 -9 15 -5 0 -17 3 -26 7
-16 5 -15 4 1 -15z"/>
</g>
</svg>
